<svg width="364" height="195" viewBox="0 0 364 195" fill="none" xmlns="http://www.w3.org/2000/svg">
<g filter="url(#filter0_d_119_131)">
<rect x="108" y="59" width="148" height="88" rx="12" fill="white"/>
<path d="M148.438 86.5938H126.562C125.112 86.5943 123.722 87.1707 122.696 88.1961C121.671 89.2216 121.094 90.6123 121.094 92.0625V113.938C121.094 115.388 121.671 116.778 122.696 117.804C123.722 118.829 125.112 119.406 126.562 119.406H148.438C149.888 119.406 151.278 118.829 152.304 117.804C153.329 116.778 153.906 115.388 153.906 113.938V92.0625C153.906 90.6123 153.329 89.2216 152.304 88.1961C151.278 87.1707 149.888 86.5943 148.438 86.5938ZM129.844 105.188C129.844 105.478 129.729 105.756 129.523 105.961C129.318 106.166 129.04 106.281 128.75 106.281C128.46 106.281 128.182 106.166 127.977 105.961C127.771 105.756 127.656 105.478 127.656 105.188V100.812C127.656 100.522 127.771 100.244 127.977 100.039C128.182 99.834 128.46 99.7188 128.75 99.7188C129.04 99.7188 129.318 99.834 129.523 100.039C129.729 100.244 129.844 100.522 129.844 100.812V105.188ZM134.219 107.375C134.219 107.665 134.104 107.943 133.898 108.148C133.693 108.354 133.415 108.469 133.125 108.469C132.835 108.469 132.557 108.354 132.352 108.148C132.146 107.943 132.031 107.665 132.031 107.375V98.625C132.031 98.3349 132.146 98.0567 132.352 97.8516C132.557 97.6465 132.835 97.5312 133.125 97.5312C133.415 97.5312 133.693 97.6465 133.898 97.8516C134.104 98.0567 134.219 98.3349 134.219 98.625V107.375ZM138.594 109.562C138.594 109.853 138.479 110.131 138.273 110.336C138.068 110.541 137.79 110.656 137.5 110.656C137.21 110.656 136.932 110.541 136.727 110.336C136.521 110.131 136.406 109.853 136.406 109.562V96.4375C136.406 96.1474 136.521 95.8692 136.727 95.6641C136.932 95.459 137.21 95.3438 137.5 95.3438C137.79 95.3438 138.068 95.459 138.273 95.6641C138.479 95.8692 138.594 96.1474 138.594 96.4375V109.562ZM142.969 107.375C142.969 107.665 142.854 107.943 142.648 108.148C142.443 108.354 142.165 108.469 141.875 108.469C141.585 108.469 141.307 108.354 141.102 108.148C140.896 107.943 140.781 107.665 140.781 107.375V98.625C140.781 98.3349 140.896 98.0567 141.102 97.8516C141.307 97.6465 141.585 97.5312 141.875 97.5312C142.165 97.5312 142.443 97.6465 142.648 97.8516C142.854 98.0567 142.969 98.3349 142.969 98.625V107.375ZM147.344 105.188C147.344 105.478 147.229 105.756 147.023 105.961C146.818 106.166 146.54 106.281 146.25 106.281C145.96 106.281 145.682 106.166 145.477 105.961C145.271 105.756 145.156 105.478 145.156 105.188V100.812C145.156 100.522 145.271 100.244 145.477 100.039C145.682 99.834 145.96 99.7188 146.25 99.7188C146.54 99.7188 146.818 99.834 147.023 100.039C147.229 100.244 147.344 100.522 147.344 100.812V105.188Z" fill="#FFB320"/>
<path d="M170.296 93.88C170.893 93.9013 171.491 93.8587 172.088 93.752C172.685 93.6453 173.219 93.464 173.688 93.208C174.157 92.9307 174.531 92.5573 174.808 92.088C175.107 91.6187 175.256 91.0427 175.256 90.36C175.256 89.4 174.925 88.632 174.264 88.056C173.624 87.48 172.792 87.192 171.768 87.192C171.128 87.192 170.573 87.32 170.104 87.576C169.635 87.832 169.24 88.184 168.92 88.632C168.621 89.0587 168.397 89.5493 168.248 90.104C168.099 90.6373 168.035 91.192 168.056 91.768H164.408C164.451 90.68 164.653 89.6773 165.016 88.76C165.379 87.8213 165.869 87.0107 166.488 86.328C167.128 85.6453 167.896 85.112 168.792 84.728C169.688 84.344 170.701 84.152 171.832 84.152C172.707 84.152 173.56 84.28 174.392 84.536C175.245 84.792 176.003 85.1653 176.664 85.656C177.347 86.1467 177.891 86.776 178.296 87.544C178.701 88.2907 178.904 89.1547 178.904 90.136C178.904 91.2667 178.648 92.2587 178.136 93.112C177.624 93.944 176.824 94.552 175.736 94.936V95C177.016 95.256 178.008 95.896 178.712 96.92C179.437 97.9227 179.8 99.1493 179.8 100.6C179.8 101.667 179.587 102.627 179.16 103.48C178.733 104.312 178.157 105.027 177.432 105.624C176.707 106.2 175.864 106.648 174.904 106.968C173.944 107.288 172.931 107.448 171.864 107.448C170.563 107.448 169.421 107.267 168.44 106.904C167.48 106.52 166.669 105.987 166.008 105.304C165.368 104.621 164.877 103.8 164.536 102.84C164.195 101.88 164.013 100.813 163.992 99.64H167.64C167.597 101.005 167.928 102.147 168.632 103.064C169.357 103.96 170.435 104.408 171.864 104.408C173.08 104.408 174.093 104.067 174.904 103.384C175.736 102.68 176.152 101.688 176.152 100.408C176.152 99.5333 175.981 98.84 175.64 98.328C175.299 97.816 174.851 97.432 174.296 97.176C173.741 96.8987 173.112 96.728 172.408 96.664C171.725 96.6 171.021 96.5787 170.296 96.6V93.88ZM182.989 102.68H187.437V107C187.416 108.323 187.011 109.432 186.221 110.328C185.432 111.224 184.397 111.8 183.117 112.056V110.104C183.821 109.933 184.344 109.539 184.685 108.92C185.048 108.323 185.219 107.683 185.197 107H182.989V102.68ZM198.584 84.152C200.184 84.152 201.485 84.5253 202.488 85.272C203.512 85.9973 204.301 86.936 204.856 88.088C205.432 89.2187 205.816 90.4667 206.008 91.832C206.221 93.1973 206.328 94.52 206.328 95.8C206.328 97.08 206.221 98.4027 206.008 99.768C205.816 101.133 205.432 102.392 204.856 103.544C204.301 104.675 203.512 105.613 202.488 106.36C201.485 107.085 200.184 107.448 198.584 107.448C196.984 107.448 195.672 107.085 194.648 106.36C193.645 105.613 192.856 104.675 192.28 103.544C191.725 102.392 191.341 101.133 191.128 99.768C190.936 98.4027 190.84 97.08 190.84 95.8C190.84 94.52 190.936 93.1973 191.128 91.832C191.341 90.4667 191.725 89.2187 192.28 88.088C192.856 86.936 193.645 85.9973 194.648 85.272C195.672 84.5253 196.984 84.152 198.584 84.152ZM198.584 104.408C199.373 104.408 200.034 104.184 200.568 103.736C201.101 103.267 201.517 102.648 201.816 101.88C202.136 101.091 202.36 100.173 202.488 99.128C202.616 98.0827 202.68 96.9733 202.68 95.8C202.68 94.6267 202.616 93.528 202.488 92.504C202.36 91.4587 202.136 90.5413 201.816 89.752C201.517 88.9627 201.101 88.344 200.568 87.896C200.034 87.4267 199.373 87.192 198.584 87.192C197.773 87.192 197.101 87.4267 196.568 87.896C196.056 88.344 195.64 88.9627 195.32 89.752C195.021 90.5413 194.808 91.4587 194.68 92.504C194.552 93.528 194.488 94.6267 194.488 95.8C194.488 96.9733 194.552 98.0827 194.68 99.128C194.808 100.173 195.021 101.091 195.32 101.88C195.64 102.648 196.056 103.267 196.568 103.736C197.101 104.184 197.773 104.408 198.584 104.408ZM216.365 84.152C217.965 84.152 219.266 84.5253 220.269 85.272C221.293 85.9973 222.082 86.936 222.637 88.088C223.213 89.2187 223.597 90.4667 223.789 91.832C224.002 93.1973 224.109 94.52 224.109 95.8C224.109 97.08 224.002 98.4027 223.789 99.768C223.597 101.133 223.213 102.392 222.637 103.544C222.082 104.675 221.293 105.613 220.269 106.36C219.266 107.085 217.965 107.448 216.365 107.448C214.765 107.448 213.453 107.085 212.429 106.36C211.426 105.613 210.637 104.675 210.061 103.544C209.506 102.392 209.122 101.133 208.909 99.768C208.717 98.4027 208.621 97.08 208.621 95.8C208.621 94.52 208.717 93.1973 208.909 91.832C209.122 90.4667 209.506 89.2187 210.061 88.088C210.637 86.936 211.426 85.9973 212.429 85.272C213.453 84.5253 214.765 84.152 216.365 84.152ZM216.365 104.408C217.154 104.408 217.815 104.184 218.349 103.736C218.882 103.267 219.298 102.648 219.597 101.88C219.917 101.091 220.141 100.173 220.269 99.128C220.397 98.0827 220.461 96.9733 220.461 95.8C220.461 94.6267 220.397 93.528 220.269 92.504C220.141 91.4587 219.917 90.5413 219.597 89.752C219.298 88.9627 218.882 88.344 218.349 87.896C217.815 87.4267 217.154 87.192 216.365 87.192C215.554 87.192 214.882 87.4267 214.349 87.896C213.837 88.344 213.421 88.9627 213.101 89.752C212.802 90.5413 212.589 91.4587 212.461 92.504C212.333 93.528 212.269 94.6267 212.269 95.8C212.269 96.9733 212.333 98.0827 212.461 99.128C212.589 100.173 212.802 101.091 213.101 101.88C213.421 102.648 213.837 103.267 214.349 103.736C214.882 104.184 215.554 104.408 216.365 104.408ZM234.146 84.152C235.746 84.152 237.047 84.5253 238.05 85.272C239.074 85.9973 239.863 86.936 240.418 88.088C240.994 89.2187 241.378 90.4667 241.57 91.832C241.783 93.1973 241.89 94.52 241.89 95.8C241.89 97.08 241.783 98.4027 241.57 99.768C241.378 101.133 240.994 102.392 240.418 103.544C239.863 104.675 239.074 105.613 238.05 106.36C237.047 107.085 235.746 107.448 234.146 107.448C232.546 107.448 231.234 107.085 230.21 106.36C229.207 105.613 228.418 104.675 227.842 103.544C227.287 102.392 226.903 101.133 226.69 99.768C226.498 98.4027 226.402 97.08 226.402 95.8C226.402 94.52 226.498 93.1973 226.69 91.832C226.903 90.4667 227.287 89.2187 227.842 88.088C228.418 86.936 229.207 85.9973 230.21 85.272C231.234 84.5253 232.546 84.152 234.146 84.152ZM234.146 104.408C234.935 104.408 235.597 104.184 236.13 103.736C236.663 103.267 237.079 102.648 237.378 101.88C237.698 101.091 237.922 100.173 238.05 99.128C238.178 98.0827 238.242 96.9733 238.242 95.8C238.242 94.6267 238.178 93.528 238.05 92.504C237.922 91.4587 237.698 90.5413 237.378 89.752C237.079 88.9627 236.663 88.344 236.13 87.896C235.597 87.4267 234.935 87.192 234.146 87.192C233.335 87.192 232.663 87.4267 232.13 87.896C231.618 88.344 231.202 88.9627 230.882 89.752C230.583 90.5413 230.37 91.4587 230.242 92.504C230.114 93.528 230.05 94.6267 230.05 95.8C230.05 96.9733 230.114 98.0827 230.242 99.128C230.37 100.173 230.583 101.091 230.882 101.88C231.202 102.648 231.618 103.267 232.13 103.736C232.663 104.184 233.335 104.408 234.146 104.408Z" fill="#404449"/>
<path d="M162.94 119.432H164.5L166.648 126.212H166.672L168.868 119.432H170.392L167.464 128H165.796L162.94 119.432ZM173.244 128.168C172.748 128.168 172.304 128.088 171.912 127.928C171.528 127.76 171.2 127.532 170.928 127.244C170.664 126.956 170.46 126.612 170.316 126.212C170.18 125.812 170.112 125.372 170.112 124.892C170.112 124.42 170.18 123.984 170.316 123.584C170.46 123.184 170.664 122.84 170.928 122.552C171.2 122.264 171.528 122.04 171.912 121.88C172.304 121.712 172.748 121.628 173.244 121.628C173.74 121.628 174.18 121.712 174.564 121.88C174.956 122.04 175.284 122.264 175.548 122.552C175.82 122.84 176.024 123.184 176.16 123.584C176.304 123.984 176.376 124.42 176.376 124.892C176.376 125.372 176.304 125.812 176.16 126.212C176.024 126.612 175.82 126.956 175.548 127.244C175.284 127.532 174.956 127.76 174.564 127.928C174.18 128.088 173.74 128.168 173.244 128.168ZM173.244 127.088C173.548 127.088 173.812 127.024 174.036 126.896C174.26 126.768 174.444 126.6 174.588 126.392C174.732 126.184 174.836 125.952 174.9 125.696C174.972 125.432 175.008 125.164 175.008 124.892C175.008 124.628 174.972 124.364 174.9 124.1C174.836 123.836 174.732 123.604 174.588 123.404C174.444 123.196 174.26 123.028 174.036 122.9C173.812 122.772 173.548 122.708 173.244 122.708C172.94 122.708 172.676 122.772 172.452 122.9C172.228 123.028 172.044 123.196 171.9 123.404C171.756 123.604 171.648 123.836 171.576 124.1C171.512 124.364 171.48 124.628 171.48 124.892C171.48 125.164 171.512 125.432 171.576 125.696C171.648 125.952 171.756 126.184 171.9 126.392C172.044 126.6 172.228 126.768 172.452 126.896C172.676 127.024 172.94 127.088 173.244 127.088ZM177.549 119.432H178.917V120.728H177.549V119.432ZM177.549 121.796H178.917V128H177.549V121.796ZM184.596 123.872C184.54 123.488 184.384 123.2 184.128 123.008C183.88 122.808 183.564 122.708 183.18 122.708C183.004 122.708 182.816 122.74 182.616 122.804C182.416 122.86 182.232 122.972 182.064 123.14C181.896 123.3 181.756 123.528 181.644 123.824C181.532 124.112 181.476 124.492 181.476 124.964C181.476 125.22 181.504 125.476 181.56 125.732C181.624 125.988 181.72 126.216 181.848 126.416C181.984 126.616 182.156 126.78 182.364 126.908C182.572 127.028 182.824 127.088 183.12 127.088C183.52 127.088 183.848 126.964 184.104 126.716C184.368 126.468 184.532 126.12 184.596 125.672H185.964C185.836 126.48 185.528 127.1 185.04 127.532C184.56 127.956 183.92 128.168 183.12 128.168C182.632 128.168 182.2 128.088 181.824 127.928C181.456 127.76 181.144 127.536 180.888 127.256C180.632 126.968 180.436 126.628 180.3 126.236C180.172 125.844 180.108 125.42 180.108 124.964C180.108 124.5 180.172 124.064 180.3 123.656C180.428 123.248 180.62 122.896 180.876 122.6C181.132 122.296 181.448 122.06 181.824 121.892C182.208 121.716 182.656 121.628 183.168 121.628C183.528 121.628 183.868 121.676 184.188 121.772C184.516 121.86 184.804 121.996 185.052 122.18C185.308 122.364 185.516 122.596 185.676 122.876C185.836 123.156 185.932 123.488 185.964 123.872H184.596ZM191.335 124.352C191.319 124.136 191.271 123.928 191.191 123.728C191.119 123.528 191.015 123.356 190.879 123.212C190.751 123.06 190.591 122.94 190.399 122.852C190.215 122.756 190.007 122.708 189.775 122.708C189.535 122.708 189.315 122.752 189.115 122.84C188.923 122.92 188.755 123.036 188.611 123.188C188.475 123.332 188.363 123.504 188.275 123.704C188.195 123.904 188.151 124.12 188.143 124.352H191.335ZM188.143 125.252C188.143 125.492 188.175 125.724 188.239 125.948C188.311 126.172 188.415 126.368 188.551 126.536C188.687 126.704 188.859 126.84 189.067 126.944C189.275 127.04 189.523 127.088 189.811 127.088C190.211 127.088 190.531 127.004 190.771 126.836C191.019 126.66 191.203 126.4 191.323 126.056H192.619C192.547 126.392 192.423 126.692 192.247 126.956C192.071 127.22 191.859 127.444 191.611 127.628C191.363 127.804 191.083 127.936 190.771 128.024C190.467 128.12 190.147 128.168 189.811 128.168C189.323 128.168 188.891 128.088 188.515 127.928C188.139 127.768 187.819 127.544 187.555 127.256C187.299 126.968 187.103 126.624 186.967 126.224C186.839 125.824 186.775 125.384 186.775 124.904C186.775 124.464 186.843 124.048 186.979 123.656C187.123 123.256 187.323 122.908 187.579 122.612C187.843 122.308 188.159 122.068 188.527 121.892C188.895 121.716 189.311 121.628 189.775 121.628C190.263 121.628 190.699 121.732 191.083 121.94C191.475 122.14 191.799 122.408 192.055 122.744C192.311 123.08 192.495 123.468 192.607 123.908C192.727 124.34 192.759 124.788 192.703 125.252H188.143ZM197.275 119.432H201.055C201.663 119.432 202.159 119.52 202.543 119.696C202.927 119.872 203.223 120.092 203.431 120.356C203.639 120.62 203.779 120.908 203.851 121.22C203.931 121.532 203.971 121.82 203.971 122.084C203.971 122.348 203.931 122.636 203.851 122.948C203.779 123.252 203.639 123.536 203.431 123.8C203.223 124.064 202.927 124.284 202.543 124.46C202.159 124.628 201.663 124.712 201.055 124.712H198.775V128H197.275V119.432ZM198.775 123.488H200.971C201.139 123.488 201.311 123.464 201.487 123.416C201.663 123.368 201.823 123.292 201.967 123.188C202.119 123.076 202.239 122.932 202.327 122.756C202.423 122.572 202.471 122.344 202.471 122.072C202.471 121.792 202.431 121.56 202.351 121.376C202.271 121.192 202.163 121.048 202.027 120.944C201.891 120.832 201.735 120.756 201.559 120.716C201.383 120.676 201.195 120.656 200.995 120.656H198.775V123.488ZM207.931 128.168C207.435 128.168 206.991 128.088 206.599 127.928C206.215 127.76 205.887 127.532 205.615 127.244C205.351 126.956 205.147 126.612 205.003 126.212C204.867 125.812 204.799 125.372 204.799 124.892C204.799 124.42 204.867 123.984 205.003 123.584C205.147 123.184 205.351 122.84 205.615 122.552C205.887 122.264 206.215 122.04 206.599 121.88C206.991 121.712 207.435 121.628 207.931 121.628C208.427 121.628 208.867 121.712 209.251 121.88C209.643 122.04 209.971 122.264 210.235 122.552C210.507 122.84 210.711 123.184 210.847 123.584C210.991 123.984 211.063 124.42 211.063 124.892C211.063 125.372 210.991 125.812 210.847 126.212C210.711 126.612 210.507 126.956 210.235 127.244C209.971 127.532 209.643 127.76 209.251 127.928C208.867 128.088 208.427 128.168 207.931 128.168ZM207.931 127.088C208.235 127.088 208.499 127.024 208.723 126.896C208.947 126.768 209.131 126.6 209.275 126.392C209.419 126.184 209.523 125.952 209.587 125.696C209.659 125.432 209.695 125.164 209.695 124.892C209.695 124.628 209.659 124.364 209.587 124.1C209.523 123.836 209.419 123.604 209.275 123.404C209.131 123.196 208.947 123.028 208.723 122.9C208.499 122.772 208.235 122.708 207.931 122.708C207.627 122.708 207.363 122.772 207.139 122.9C206.915 123.028 206.731 123.196 206.587 123.404C206.443 123.604 206.335 123.836 206.263 124.1C206.199 124.364 206.167 124.628 206.167 124.892C206.167 125.164 206.199 125.432 206.263 125.696C206.335 125.952 206.443 126.184 206.587 126.392C206.731 126.6 206.915 126.768 207.139 126.896C207.363 127.024 207.627 127.088 207.931 127.088ZM211.636 121.796H213.088L214.3 126.428H214.324L215.488 121.796H216.868L217.984 126.428H218.008L219.268 121.796H220.66L218.716 128H217.312L216.16 123.392H216.136L214.996 128H213.556L211.636 121.796ZM225.8 124.352C225.784 124.136 225.736 123.928 225.656 123.728C225.584 123.528 225.48 123.356 225.344 123.212C225.216 123.06 225.056 122.94 224.864 122.852C224.68 122.756 224.472 122.708 224.24 122.708C224 122.708 223.78 122.752 223.58 122.84C223.388 122.92 223.22 123.036 223.076 123.188C222.94 123.332 222.828 123.504 222.74 123.704C222.66 123.904 222.616 124.12 222.608 124.352H225.8ZM222.608 125.252C222.608 125.492 222.64 125.724 222.704 125.948C222.776 126.172 222.88 126.368 223.016 126.536C223.152 126.704 223.324 126.84 223.532 126.944C223.74 127.04 223.988 127.088 224.276 127.088C224.676 127.088 224.996 127.004 225.236 126.836C225.484 126.66 225.668 126.4 225.788 126.056H227.084C227.012 126.392 226.888 126.692 226.712 126.956C226.536 127.22 226.324 127.444 226.076 127.628C225.828 127.804 225.548 127.936 225.236 128.024C224.932 128.12 224.612 128.168 224.276 128.168C223.788 128.168 223.356 128.088 222.98 127.928C222.604 127.768 222.284 127.544 222.02 127.256C221.764 126.968 221.568 126.624 221.432 126.224C221.304 125.824 221.24 125.384 221.24 124.904C221.24 124.464 221.308 124.048 221.444 123.656C221.588 123.256 221.788 122.908 222.044 122.612C222.308 122.308 222.624 122.068 222.992 121.892C223.36 121.716 223.776 121.628 224.24 121.628C224.728 121.628 225.164 121.732 225.548 121.94C225.94 122.14 226.264 122.408 226.52 122.744C226.776 123.08 226.96 123.468 227.072 123.908C227.192 124.34 227.224 124.788 227.168 125.252H222.608ZM228.208 121.796H229.492V122.996H229.516C229.556 122.828 229.632 122.664 229.744 122.504C229.864 122.344 230.004 122.2 230.164 122.072C230.332 121.936 230.516 121.828 230.716 121.748C230.916 121.668 231.12 121.628 231.328 121.628C231.488 121.628 231.596 121.632 231.652 121.64C231.716 121.648 231.78 121.656 231.844 121.664V122.984C231.748 122.968 231.648 122.956 231.544 122.948C231.448 122.932 231.352 122.924 231.256 122.924C231.024 122.924 230.804 122.972 230.596 123.068C230.396 123.156 230.22 123.292 230.068 123.476C229.916 123.652 229.796 123.872 229.708 124.136C229.62 124.4 229.576 124.704 229.576 125.048V128H228.208V121.796Z" fill="#404449"/>
</g>
<g filter="url(#filter1_d_119_131)">
<rect x="44" y="40" width="276" height="34" rx="7" fill="white"/>
<rect x="56" y="49" width="242" height="16" rx="2" fill="white"/>
<g clip-path="url(#clip0_119_131)">
<rect x="56" y="49" width="16" height="16" rx="8" fill="#FFB320"/>
<circle cx="63.9998" cy="57" r="5.33333" fill="white"/>
<path d="M69 49.5H59C58.337 49.5003 57.7013 49.7637 57.2325 50.2325C56.7637 50.7013 56.5003 51.337 56.5 52V62C56.5003 62.663 56.7637 63.2987 57.2325 63.7675C57.7013 64.2363 58.337 64.4997 59 64.5H69C69.663 64.4997 70.2987 64.2363 70.7675 63.7675C71.2363 63.2987 71.4997 62.663 71.5 62V52C71.4997 51.337 71.2363 50.7013 70.7675 50.2325C70.2987 49.7637 69.663 49.5003 69 49.5ZM60.5 58C60.5 58.1326 60.4473 58.2598 60.3536 58.3536C60.2598 58.4473 60.1326 58.5 60 58.5C59.8674 58.5 59.7402 58.4473 59.6464 58.3536C59.5527 58.2598 59.5 58.1326 59.5 58V56C59.5 55.8674 59.5527 55.7402 59.6464 55.6464C59.7402 55.5527 59.8674 55.5 60 55.5C60.1326 55.5 60.2598 55.5527 60.3536 55.6464C60.4473 55.7402 60.5 55.8674 60.5 56V58ZM62.5 59C62.5 59.1326 62.4473 59.2598 62.3536 59.3536C62.2598 59.4473 62.1326 59.5 62 59.5C61.8674 59.5 61.7402 59.4473 61.6464 59.3536C61.5527 59.2598 61.5 59.1326 61.5 59V55C61.5 54.8674 61.5527 54.7402 61.6464 54.6464C61.7402 54.5527 61.8674 54.5 62 54.5C62.1326 54.5 62.2598 54.5527 62.3536 54.6464C62.4473 54.7402 62.5 54.8674 62.5 55V59ZM64.5 60C64.5 60.1326 64.4473 60.2598 64.3536 60.3536C64.2598 60.4473 64.1326 60.5 64 60.5C63.8674 60.5 63.7402 60.4473 63.6464 60.3536C63.5527 60.2598 63.5 60.1326 63.5 60V54C63.5 53.8674 63.5527 53.7402 63.6464 53.6464C63.7402 53.5527 63.8674 53.5 64 53.5C64.1326 53.5 64.2598 53.5527 64.3536 53.6464C64.4473 53.7402 64.5 53.8674 64.5 54V60ZM66.5 59C66.5 59.1326 66.4473 59.2598 66.3536 59.3536C66.2598 59.4473 66.1326 59.5 66 59.5C65.8674 59.5 65.7402 59.4473 65.6464 59.3536C65.5527 59.2598 65.5 59.1326 65.5 59V55C65.5 54.8674 65.5527 54.7402 65.6464 54.6464C65.7402 54.5527 65.8674 54.5 66 54.5C66.1326 54.5 66.2598 54.5527 66.3536 54.6464C66.4473 54.7402 66.5 54.8674 66.5 55V59ZM68.5 58C68.5 58.1326 68.4473 58.2598 68.3536 58.3536C68.2598 58.4473 68.1326 58.5 68 58.5C67.8674 58.5 67.7402 58.4473 67.6464 58.3536C67.5527 58.2598 67.5 58.1326 67.5 58V56C67.5 55.8674 67.5527 55.7402 67.6464 55.6464C67.7402 55.5527 67.8674 55.5 68 55.5C68.1326 55.5 68.2598 55.5527 68.3536 55.6464C68.4473 55.7402 68.5 55.8674 68.5 56V58Z" fill="#FFB320"/>
</g>
<path d="M86.96 55.512C86.832 54.904 86.548 54.448 86.108 54.144C85.676 53.84 85.16 53.688 84.56 53.688C84.048 53.688 83.608 53.784 83.24 53.976C82.88 54.168 82.58 54.428 82.34 54.756C82.108 55.076 81.936 55.444 81.824 55.86C81.712 56.276 81.656 56.708 81.656 57.156C81.656 57.644 81.712 58.108 81.824 58.548C81.936 58.98 82.108 59.36 82.34 59.688C82.58 60.008 82.884 60.264 83.252 60.456C83.62 60.648 84.06 60.744 84.572 60.744C84.948 60.744 85.28 60.684 85.568 60.564C85.864 60.436 86.116 60.264 86.324 60.048C86.54 59.824 86.708 59.56 86.828 59.256C86.948 58.952 87.02 58.624 87.044 58.272H88.184C88.072 59.352 87.7 60.192 87.068 60.792C86.436 61.392 85.572 61.692 84.476 61.692C83.812 61.692 83.232 61.58 82.736 61.356C82.24 61.124 81.828 60.808 81.5 60.408C81.172 60.008 80.924 59.536 80.756 58.992C80.596 58.448 80.516 57.864 80.516 57.24C80.516 56.616 80.604 56.032 80.78 55.488C80.956 54.936 81.212 54.456 81.548 54.048C81.892 53.64 82.316 53.32 82.82 53.088C83.332 52.848 83.916 52.728 84.572 52.728C85.02 52.728 85.444 52.788 85.844 52.908C86.244 53.028 86.6 53.204 86.912 53.436C87.224 53.668 87.484 53.96 87.692 54.312C87.9 54.656 88.036 55.056 88.1 55.512H86.96ZM89.3922 55.296H90.3522V56.604H90.3762C90.6242 56.1 90.9282 55.728 91.2882 55.488C91.6482 55.248 92.1042 55.136 92.6562 55.152V56.232C92.2482 56.232 91.9002 56.288 91.6122 56.4C91.3242 56.512 91.0922 56.676 90.9162 56.892C90.7402 57.108 90.6122 57.372 90.5322 57.684C90.4522 57.988 90.4122 58.34 90.4122 58.74V61.5H89.3922V55.296ZM97.5213 57.804C97.5053 57.564 97.4493 57.336 97.3533 57.12C97.2653 56.904 97.1413 56.72 96.9813 56.568C96.8293 56.408 96.6453 56.284 96.4293 56.196C96.2213 56.1 95.9893 56.052 95.7333 56.052C95.4693 56.052 95.2293 56.1 95.0133 56.196C94.8053 56.284 94.6253 56.408 94.4733 56.568C94.3213 56.728 94.2013 56.916 94.1133 57.132C94.0253 57.34 93.9733 57.564 93.9573 57.804H97.5213ZM98.5053 59.532C98.3693 60.228 98.0693 60.752 97.6053 61.104C97.1413 61.456 96.5573 61.632 95.8533 61.632C95.3573 61.632 94.9253 61.552 94.5573 61.392C94.1973 61.232 93.8933 61.008 93.6453 60.72C93.3973 60.432 93.2093 60.088 93.0813 59.688C92.9613 59.288 92.8933 58.852 92.8773 58.38C92.8773 57.908 92.9493 57.476 93.0933 57.084C93.2373 56.692 93.4373 56.352 93.6933 56.064C93.9573 55.776 94.2653 55.552 94.6173 55.392C94.9773 55.232 95.3693 55.152 95.7933 55.152C96.3453 55.152 96.8013 55.268 97.1613 55.5C97.5293 55.724 97.8213 56.012 98.0373 56.364C98.2613 56.716 98.4133 57.1 98.4933 57.516C98.5813 57.932 98.6173 58.328 98.6013 58.704H93.9573C93.9493 58.976 93.9813 59.236 94.0533 59.484C94.1253 59.724 94.2413 59.94 94.4013 60.132C94.5613 60.316 94.7653 60.464 95.0133 60.576C95.2613 60.688 95.5533 60.744 95.8893 60.744C96.3213 60.744 96.6733 60.644 96.9453 60.444C97.2253 60.244 97.4093 59.94 97.4973 59.532H98.5053ZM105.155 61.476C104.979 61.58 104.735 61.632 104.423 61.632C104.159 61.632 103.947 61.56 103.787 61.416C103.635 61.264 103.559 61.02 103.559 60.684C103.279 61.02 102.951 61.264 102.575 61.416C102.207 61.56 101.807 61.632 101.375 61.632C101.095 61.632 100.827 61.6 100.571 61.536C100.323 61.472 100.107 61.372 99.9226 61.236C99.7386 61.1 99.5906 60.924 99.4786 60.708C99.3746 60.484 99.3226 60.216 99.3226 59.904C99.3226 59.552 99.3826 59.264 99.5026 59.04C99.6226 58.816 99.7786 58.636 99.9706 58.5C100.171 58.356 100.395 58.248 100.643 58.176C100.899 58.104 101.159 58.044 101.423 57.996C101.703 57.94 101.967 57.9 102.215 57.876C102.471 57.844 102.695 57.804 102.887 57.756C103.079 57.7 103.231 57.624 103.343 57.528C103.455 57.424 103.511 57.276 103.511 57.084C103.511 56.86 103.467 56.68 103.379 56.544C103.299 56.408 103.191 56.304 103.055 56.232C102.927 56.16 102.779 56.112 102.611 56.088C102.451 56.064 102.291 56.052 102.131 56.052C101.699 56.052 101.339 56.136 101.051 56.304C100.763 56.464 100.607 56.772 100.583 57.228H99.5626C99.5786 56.844 99.6586 56.52 99.8026 56.256C99.9466 55.992 100.139 55.78 100.379 55.62C100.619 55.452 100.891 55.332 101.195 55.26C101.507 55.188 101.839 55.152 102.191 55.152C102.471 55.152 102.747 55.172 103.019 55.212C103.299 55.252 103.551 55.336 103.775 55.464C103.999 55.584 104.179 55.756 104.315 55.98C104.451 56.204 104.519 56.496 104.519 56.856V60.048C104.519 60.288 104.531 60.464 104.555 60.576C104.587 60.688 104.683 60.744 104.843 60.744C104.931 60.744 105.035 60.724 105.155 60.684V61.476ZM103.499 58.296C103.371 58.392 103.203 58.464 102.995 58.512C102.787 58.552 102.567 58.588 102.335 58.62C102.111 58.644 101.883 58.676 101.651 58.716C101.419 58.748 101.211 58.804 101.027 58.884C100.843 58.964 100.691 59.08 100.571 59.232C100.459 59.376 100.403 59.576 100.403 59.832C100.403 60 100.435 60.144 100.499 60.264C100.571 60.376 100.659 60.468 100.763 60.54C100.875 60.612 101.003 60.664 101.147 60.696C101.291 60.728 101.443 60.744 101.603 60.744C101.939 60.744 102.227 60.7 102.467 60.612C102.707 60.516 102.903 60.4 103.055 60.264C103.207 60.12 103.319 59.968 103.391 59.808C103.463 59.64 103.499 59.484 103.499 59.34V58.296ZM107.52 55.296H108.756V56.196H107.52V60.048C107.52 60.168 107.528 60.264 107.544 60.336C107.568 60.408 107.608 60.464 107.664 60.504C107.72 60.544 107.796 60.572 107.892 60.588C107.996 60.596 108.128 60.6 108.288 60.6H108.756V61.5H107.976C107.712 61.5 107.484 61.484 107.292 61.452C107.108 61.412 106.956 61.344 106.836 61.248C106.724 61.152 106.64 61.016 106.584 60.84C106.528 60.664 106.5 60.432 106.5 60.144V56.196H105.444V55.296H106.5V53.436H107.52V55.296ZM110.969 54.18H109.949V52.932H110.969V54.18ZM109.949 55.296H110.969V61.5H109.949V55.296ZM112.549 55.296H113.509V56.28H113.533C113.957 55.528 114.629 55.152 115.549 55.152C115.957 55.152 116.297 55.208 116.569 55.32C116.841 55.432 117.061 55.588 117.229 55.788C117.397 55.988 117.513 56.228 117.577 56.508C117.649 56.78 117.685 57.084 117.685 57.42V61.5H116.665V57.3C116.665 56.916 116.553 56.612 116.329 56.388C116.105 56.164 115.797 56.052 115.405 56.052C115.093 56.052 114.821 56.1 114.589 56.196C114.365 56.292 114.177 56.428 114.025 56.604C113.873 56.78 113.757 56.988 113.677 57.228C113.605 57.46 113.569 57.716 113.569 57.996V61.5H112.549V55.296ZM124.569 60.972C124.569 61.988 124.337 62.748 123.873 63.252C123.409 63.756 122.681 64.008 121.689 64.008C121.401 64.008 121.105 63.976 120.801 63.912C120.505 63.848 120.233 63.744 119.985 63.6C119.745 63.456 119.545 63.268 119.385 63.036C119.225 62.804 119.137 62.52 119.121 62.184H120.141C120.149 62.368 120.205 62.524 120.309 62.652C120.421 62.78 120.553 62.884 120.705 62.964C120.865 63.044 121.037 63.1 121.221 63.132C121.405 63.172 121.581 63.192 121.749 63.192C122.085 63.192 122.369 63.132 122.601 63.012C122.833 62.9 123.025 62.74 123.177 62.532C123.329 62.332 123.437 62.088 123.501 61.8C123.573 61.512 123.609 61.196 123.609 60.852V60.444H123.585C123.409 60.828 123.141 61.112 122.781 61.296C122.429 61.472 122.053 61.56 121.653 61.56C121.189 61.56 120.785 61.476 120.441 61.308C120.097 61.14 119.809 60.916 119.577 60.636C119.345 60.348 119.169 60.016 119.049 59.64C118.937 59.256 118.881 58.852 118.881 58.428C118.881 58.06 118.929 57.684 119.025 57.3C119.121 56.908 119.281 56.556 119.505 56.244C119.729 55.924 120.025 55.664 120.393 55.464C120.761 55.256 121.213 55.152 121.749 55.152C122.141 55.152 122.501 55.24 122.829 55.416C123.157 55.584 123.413 55.84 123.597 56.184H123.609V55.296H124.569V60.972ZM121.713 60.672C122.049 60.672 122.333 60.604 122.565 60.468C122.805 60.324 122.997 60.14 123.141 59.916C123.285 59.684 123.389 59.424 123.453 59.136C123.525 58.848 123.561 58.56 123.561 58.272C123.561 58 123.529 57.732 123.465 57.468C123.401 57.204 123.297 56.968 123.153 56.76C123.017 56.544 122.837 56.372 122.613 56.244C122.389 56.116 122.117 56.052 121.797 56.052C121.469 56.052 121.189 56.116 120.957 56.244C120.725 56.364 120.533 56.528 120.381 56.736C120.237 56.944 120.129 57.184 120.057 57.456C119.993 57.728 119.961 58.012 119.961 58.308C119.961 58.588 119.989 58.868 120.045 59.148C120.101 59.428 120.197 59.684 120.333 59.916C120.469 60.14 120.649 60.324 120.873 60.468C121.097 60.604 121.377 60.672 121.713 60.672ZM134.944 61.476C134.768 61.58 134.524 61.632 134.212 61.632C133.948 61.632 133.736 61.56 133.576 61.416C133.424 61.264 133.348 61.02 133.348 60.684C133.068 61.02 132.74 61.264 132.364 61.416C131.996 61.56 131.596 61.632 131.164 61.632C130.884 61.632 130.616 61.6 130.36 61.536C130.112 61.472 129.896 61.372 129.712 61.236C129.528 61.1 129.38 60.924 129.268 60.708C129.164 60.484 129.112 60.216 129.112 59.904C129.112 59.552 129.172 59.264 129.292 59.04C129.412 58.816 129.568 58.636 129.76 58.5C129.96 58.356 130.184 58.248 130.432 58.176C130.688 58.104 130.948 58.044 131.212 57.996C131.492 57.94 131.756 57.9 132.004 57.876C132.26 57.844 132.484 57.804 132.676 57.756C132.868 57.7 133.02 57.624 133.132 57.528C133.244 57.424 133.3 57.276 133.3 57.084C133.3 56.86 133.256 56.68 133.168 56.544C133.088 56.408 132.98 56.304 132.844 56.232C132.716 56.16 132.568 56.112 132.4 56.088C132.24 56.064 132.08 56.052 131.92 56.052C131.488 56.052 131.128 56.136 130.84 56.304C130.552 56.464 130.396 56.772 130.372 57.228H129.352C129.368 56.844 129.448 56.52 129.592 56.256C129.736 55.992 129.928 55.78 130.168 55.62C130.408 55.452 130.68 55.332 130.984 55.26C131.296 55.188 131.628 55.152 131.98 55.152C132.26 55.152 132.536 55.172 132.808 55.212C133.088 55.252 133.34 55.336 133.564 55.464C133.788 55.584 133.968 55.756 134.104 55.98C134.24 56.204 134.308 56.496 134.308 56.856V60.048C134.308 60.288 134.32 60.464 134.344 60.576C134.376 60.688 134.472 60.744 134.632 60.744C134.72 60.744 134.824 60.724 134.944 60.684V61.476ZM133.288 58.296C133.16 58.392 132.992 58.464 132.784 58.512C132.576 58.552 132.356 58.588 132.124 58.62C131.9 58.644 131.672 58.676 131.44 58.716C131.208 58.748 131 58.804 130.816 58.884C130.632 58.964 130.48 59.08 130.36 59.232C130.248 59.376 130.192 59.576 130.192 59.832C130.192 60 130.224 60.144 130.288 60.264C130.36 60.376 130.448 60.468 130.552 60.54C130.664 60.612 130.792 60.664 130.936 60.696C131.08 60.728 131.232 60.744 131.392 60.744C131.728 60.744 132.016 60.7 132.256 60.612C132.496 60.516 132.692 60.4 132.844 60.264C132.996 60.12 133.108 59.968 133.18 59.808C133.252 59.64 133.288 59.484 133.288 59.34V58.296ZM139.269 55.296H140.289V56.136H140.313C140.481 55.792 140.745 55.544 141.105 55.392C141.465 55.232 141.861 55.152 142.293 55.152C142.773 55.152 143.189 55.24 143.541 55.416C143.901 55.592 144.197 55.832 144.429 56.136C144.669 56.432 144.849 56.776 144.969 57.168C145.089 57.56 145.149 57.976 145.149 58.416C145.149 58.856 145.089 59.272 144.969 59.664C144.857 60.056 144.681 60.4 144.441 60.696C144.209 60.984 143.913 61.212 143.553 61.38C143.201 61.548 142.789 61.632 142.317 61.632C142.165 61.632 141.993 61.616 141.801 61.584C141.617 61.552 141.433 61.5 141.249 61.428C141.065 61.356 140.889 61.26 140.721 61.14C140.561 61.012 140.425 60.856 140.313 60.672H140.289V63.864H139.269V55.296ZM144.069 58.344C144.069 58.056 144.029 57.776 143.949 57.504C143.877 57.224 143.761 56.976 143.601 56.76C143.449 56.544 143.249 56.372 143.001 56.244C142.761 56.116 142.477 56.052 142.149 56.052C141.805 56.052 141.513 56.12 141.273 56.256C141.033 56.392 140.837 56.572 140.685 56.796C140.533 57.012 140.421 57.26 140.349 57.54C140.285 57.82 140.253 58.104 140.253 58.392C140.253 58.696 140.289 58.992 140.361 59.28C140.433 59.56 140.545 59.808 140.697 60.024C140.857 60.24 141.061 60.416 141.309 60.552C141.557 60.68 141.857 60.744 142.209 60.744C142.561 60.744 142.853 60.676 143.085 60.54C143.325 60.404 143.517 60.224 143.661 60C143.805 59.776 143.909 59.52 143.973 59.232C144.037 58.944 144.069 58.648 144.069 58.344ZM146.31 55.296H147.27V56.604H147.294C147.542 56.1 147.846 55.728 148.206 55.488C148.566 55.248 149.022 55.136 149.574 55.152V56.232C149.166 56.232 148.818 56.288 148.53 56.4C148.242 56.512 148.01 56.676 147.834 56.892C147.658 57.108 147.53 57.372 147.45 57.684C147.37 57.988 147.33 58.34 147.33 58.74V61.5H146.31V55.296ZM150.875 58.404C150.875 58.78 150.923 59.116 151.019 59.412C151.123 59.7 151.263 59.944 151.439 60.144C151.615 60.336 151.819 60.484 152.051 60.588C152.291 60.692 152.543 60.744 152.807 60.744C153.071 60.744 153.319 60.692 153.551 60.588C153.791 60.484 153.999 60.336 154.175 60.144C154.351 59.944 154.487 59.7 154.583 59.412C154.687 59.116 154.739 58.78 154.739 58.404C154.739 58.028 154.687 57.696 154.583 57.408C154.487 57.112 154.351 56.864 154.175 56.664C153.999 56.464 153.791 56.312 153.551 56.208C153.319 56.104 153.071 56.052 152.807 56.052C152.543 56.052 152.291 56.104 152.051 56.208C151.819 56.312 151.615 56.464 151.439 56.664C151.263 56.864 151.123 57.112 151.019 57.408C150.923 57.696 150.875 58.028 150.875 58.404ZM149.795 58.404C149.795 57.948 149.859 57.524 149.987 57.132C150.115 56.732 150.307 56.388 150.563 56.1C150.819 55.804 151.135 55.572 151.511 55.404C151.887 55.236 152.319 55.152 152.807 55.152C153.303 55.152 153.735 55.236 154.103 55.404C154.479 55.572 154.795 55.804 155.051 56.1C155.307 56.388 155.499 56.732 155.627 57.132C155.755 57.524 155.819 57.948 155.819 58.404C155.819 58.86 155.755 59.284 155.627 59.676C155.499 60.068 155.307 60.412 155.051 60.708C154.795 60.996 154.479 61.224 154.103 61.392C153.735 61.552 153.303 61.632 152.807 61.632C152.319 61.632 151.887 61.552 151.511 61.392C151.135 61.224 150.819 60.996 150.563 60.708C150.307 60.412 150.115 60.068 149.987 59.676C149.859 59.284 149.795 58.86 149.795 58.404ZM157.058 55.296H158.078V56.136H158.102C158.27 55.792 158.534 55.544 158.894 55.392C159.254 55.232 159.65 55.152 160.082 55.152C160.562 55.152 160.978 55.24 161.33 55.416C161.69 55.592 161.986 55.832 162.218 56.136C162.458 56.432 162.638 56.776 162.758 57.168C162.878 57.56 162.938 57.976 162.938 58.416C162.938 58.856 162.878 59.272 162.758 59.664C162.646 60.056 162.47 60.4 162.23 60.696C161.998 60.984 161.702 61.212 161.342 61.38C160.99 61.548 160.578 61.632 160.106 61.632C159.954 61.632 159.782 61.616 159.59 61.584C159.406 61.552 159.222 61.5 159.038 61.428C158.854 61.356 158.678 61.26 158.51 61.14C158.35 61.012 158.214 60.856 158.102 60.672H158.078V63.864H157.058V55.296ZM161.858 58.344C161.858 58.056 161.818 57.776 161.738 57.504C161.666 57.224 161.55 56.976 161.39 56.76C161.238 56.544 161.038 56.372 160.79 56.244C160.55 56.116 160.266 56.052 159.938 56.052C159.594 56.052 159.302 56.12 159.062 56.256C158.822 56.392 158.626 56.572 158.474 56.796C158.322 57.012 158.21 57.26 158.138 57.54C158.074 57.82 158.042 58.104 158.042 58.392C158.042 58.696 158.078 58.992 158.15 59.28C158.222 59.56 158.334 59.808 158.486 60.024C158.646 60.24 158.85 60.416 159.098 60.552C159.346 60.68 159.646 60.744 159.998 60.744C160.35 60.744 160.642 60.676 160.874 60.54C161.114 60.404 161.306 60.224 161.45 60C161.594 59.776 161.698 59.52 161.762 59.232C161.826 58.944 161.858 58.648 161.858 58.344ZM164.879 58.404C164.879 58.78 164.927 59.116 165.023 59.412C165.127 59.7 165.267 59.944 165.443 60.144C165.619 60.336 165.823 60.484 166.055 60.588C166.295 60.692 166.547 60.744 166.811 60.744C167.075 60.744 167.323 60.692 167.555 60.588C167.795 60.484 168.003 60.336 168.179 60.144C168.355 59.944 168.491 59.7 168.587 59.412C168.691 59.116 168.743 58.78 168.743 58.404C168.743 58.028 168.691 57.696 168.587 57.408C168.491 57.112 168.355 56.864 168.179 56.664C168.003 56.464 167.795 56.312 167.555 56.208C167.323 56.104 167.075 56.052 166.811 56.052C166.547 56.052 166.295 56.104 166.055 56.208C165.823 56.312 165.619 56.464 165.443 56.664C165.267 56.864 165.127 57.112 165.023 57.408C164.927 57.696 164.879 58.028 164.879 58.404ZM163.799 58.404C163.799 57.948 163.863 57.524 163.991 57.132C164.119 56.732 164.311 56.388 164.567 56.1C164.823 55.804 165.139 55.572 165.515 55.404C165.891 55.236 166.323 55.152 166.811 55.152C167.307 55.152 167.739 55.236 168.107 55.404C168.483 55.572 168.799 55.804 169.055 56.1C169.311 56.388 169.503 56.732 169.631 57.132C169.759 57.524 169.823 57.948 169.823 58.404C169.823 58.86 169.759 59.284 169.631 59.676C169.503 60.068 169.311 60.412 169.055 60.708C168.799 60.996 168.483 61.224 168.107 61.392C167.739 61.552 167.307 61.632 166.811 61.632C166.323 61.632 165.891 61.552 165.515 61.392C165.139 61.224 164.823 60.996 164.567 60.708C164.311 60.412 164.119 60.068 163.991 59.676C163.863 59.284 163.799 58.86 163.799 58.404ZM171.65 59.544C171.658 59.768 171.71 59.96 171.806 60.12C171.902 60.272 172.026 60.396 172.178 60.492C172.338 60.58 172.514 60.644 172.706 60.684C172.906 60.724 173.11 60.744 173.318 60.744C173.478 60.744 173.646 60.732 173.822 60.708C173.998 60.684 174.158 60.64 174.302 60.576C174.454 60.512 174.578 60.42 174.674 60.3C174.77 60.172 174.818 60.012 174.818 59.82C174.818 59.556 174.718 59.356 174.518 59.22C174.318 59.084 174.066 58.976 173.762 58.896C173.466 58.808 173.142 58.732 172.79 58.668C172.438 58.596 172.11 58.5 171.806 58.38C171.51 58.252 171.262 58.076 171.062 57.852C170.862 57.628 170.762 57.316 170.762 56.916C170.762 56.604 170.83 56.336 170.966 56.112C171.11 55.888 171.29 55.708 171.506 55.572C171.73 55.428 171.978 55.324 172.25 55.26C172.53 55.188 172.806 55.152 173.078 55.152C173.43 55.152 173.754 55.184 174.05 55.248C174.346 55.304 174.606 55.408 174.83 55.56C175.062 55.704 175.246 55.904 175.382 56.16C175.518 56.408 175.598 56.72 175.622 57.096H174.602C174.586 56.896 174.534 56.732 174.446 56.604C174.358 56.468 174.246 56.36 174.11 56.28C173.974 56.2 173.822 56.144 173.654 56.112C173.494 56.072 173.33 56.052 173.162 56.052C173.01 56.052 172.854 56.064 172.694 56.088C172.542 56.112 172.402 56.156 172.274 56.22C172.146 56.276 172.042 56.356 171.962 56.46C171.882 56.556 171.842 56.684 171.842 56.844C171.842 57.02 171.902 57.168 172.022 57.288C172.15 57.4 172.31 57.496 172.502 57.576C172.694 57.648 172.91 57.712 173.15 57.768C173.39 57.816 173.63 57.868 173.87 57.924C174.126 57.98 174.374 58.048 174.614 58.128C174.862 58.208 175.078 58.316 175.262 58.452C175.454 58.58 175.606 58.744 175.718 58.944C175.838 59.144 175.898 59.392 175.898 59.688C175.898 60.064 175.818 60.376 175.658 60.624C175.506 60.872 175.302 61.072 175.046 61.224C174.798 61.376 174.514 61.48 174.194 61.536C173.882 61.6 173.57 61.632 173.258 61.632C172.914 61.632 172.586 61.596 172.274 61.524C171.962 61.452 171.686 61.336 171.446 61.176C171.206 61.008 171.014 60.792 170.87 60.528C170.726 60.256 170.646 59.928 170.63 59.544H171.65ZM182.522 61.476C182.346 61.58 182.102 61.632 181.79 61.632C181.526 61.632 181.314 61.56 181.154 61.416C181.002 61.264 180.926 61.02 180.926 60.684C180.646 61.02 180.318 61.264 179.942 61.416C179.574 61.56 179.174 61.632 178.742 61.632C178.462 61.632 178.194 61.6 177.938 61.536C177.69 61.472 177.474 61.372 177.29 61.236C177.106 61.1 176.958 60.924 176.846 60.708C176.742 60.484 176.69 60.216 176.69 59.904C176.69 59.552 176.75 59.264 176.87 59.04C176.99 58.816 177.146 58.636 177.338 58.5C177.538 58.356 177.762 58.248 178.01 58.176C178.266 58.104 178.526 58.044 178.79 57.996C179.07 57.94 179.334 57.9 179.582 57.876C179.838 57.844 180.062 57.804 180.254 57.756C180.446 57.7 180.598 57.624 180.71 57.528C180.822 57.424 180.878 57.276 180.878 57.084C180.878 56.86 180.834 56.68 180.746 56.544C180.666 56.408 180.558 56.304 180.422 56.232C180.294 56.16 180.146 56.112 179.978 56.088C179.818 56.064 179.658 56.052 179.498 56.052C179.066 56.052 178.706 56.136 178.418 56.304C178.13 56.464 177.974 56.772 177.95 57.228H176.93C176.946 56.844 177.026 56.52 177.17 56.256C177.314 55.992 177.506 55.78 177.746 55.62C177.986 55.452 178.258 55.332 178.562 55.26C178.874 55.188 179.206 55.152 179.558 55.152C179.838 55.152 180.114 55.172 180.386 55.212C180.666 55.252 180.918 55.336 181.142 55.464C181.366 55.584 181.546 55.756 181.682 55.98C181.818 56.204 181.886 56.496 181.886 56.856V60.048C181.886 60.288 181.898 60.464 181.922 60.576C181.954 60.688 182.05 60.744 182.21 60.744C182.298 60.744 182.402 60.724 182.522 60.684V61.476ZM180.866 58.296C180.738 58.392 180.57 58.464 180.362 58.512C180.154 58.552 179.934 58.588 179.702 58.62C179.478 58.644 179.25 58.676 179.018 58.716C178.786 58.748 178.578 58.804 178.394 58.884C178.21 58.964 178.058 59.08 177.938 59.232C177.826 59.376 177.77 59.576 177.77 59.832C177.77 60 177.802 60.144 177.866 60.264C177.938 60.376 178.026 60.468 178.13 60.54C178.242 60.612 178.37 60.664 178.514 60.696C178.658 60.728 178.81 60.744 178.97 60.744C179.306 60.744 179.594 60.7 179.834 60.612C180.074 60.516 180.27 60.4 180.422 60.264C180.574 60.12 180.686 59.968 180.758 59.808C180.83 59.64 180.866 59.484 180.866 59.34V58.296ZM183.531 52.932H184.551V61.5H183.531V52.932ZM193.683 57.288C193.603 56.896 193.435 56.592 193.179 56.376C192.923 56.16 192.579 56.052 192.147 56.052C191.779 56.052 191.471 56.12 191.223 56.256C190.975 56.392 190.775 56.572 190.623 56.796C190.479 57.02 190.375 57.28 190.311 57.576C190.247 57.864 190.215 58.164 190.215 58.476C190.215 58.764 190.247 59.044 190.311 59.316C190.383 59.588 190.491 59.832 190.635 60.048C190.779 60.256 190.967 60.424 191.199 60.552C191.431 60.68 191.707 60.744 192.027 60.744C192.531 60.744 192.923 60.612 193.203 60.348C193.491 60.084 193.667 59.712 193.731 59.232H194.775C194.663 60 194.375 60.592 193.911 61.008C193.455 61.424 192.831 61.632 192.039 61.632C191.567 61.632 191.147 61.556 190.779 61.404C190.419 61.252 190.115 61.036 189.867 60.756C189.627 60.476 189.443 60.144 189.315 59.76C189.195 59.368 189.135 58.94 189.135 58.476C189.135 58.012 189.195 57.58 189.315 57.18C189.435 56.772 189.615 56.42 189.855 56.124C190.103 55.82 190.411 55.584 190.779 55.416C191.147 55.24 191.575 55.152 192.063 55.152C192.415 55.152 192.743 55.196 193.047 55.284C193.359 55.364 193.631 55.492 193.863 55.668C194.103 55.844 194.299 56.068 194.451 56.34C194.603 56.604 194.699 56.92 194.739 57.288H193.683ZM196.66 58.404C196.66 58.78 196.708 59.116 196.804 59.412C196.908 59.7 197.048 59.944 197.224 60.144C197.4 60.336 197.604 60.484 197.836 60.588C198.076 60.692 198.328 60.744 198.592 60.744C198.856 60.744 199.104 60.692 199.336 60.588C199.576 60.484 199.784 60.336 199.96 60.144C200.136 59.944 200.272 59.7 200.368 59.412C200.472 59.116 200.524 58.78 200.524 58.404C200.524 58.028 200.472 57.696 200.368 57.408C200.272 57.112 200.136 56.864 199.96 56.664C199.784 56.464 199.576 56.312 199.336 56.208C199.104 56.104 198.856 56.052 198.592 56.052C198.328 56.052 198.076 56.104 197.836 56.208C197.604 56.312 197.4 56.464 197.224 56.664C197.048 56.864 196.908 57.112 196.804 57.408C196.708 57.696 196.66 58.028 196.66 58.404ZM195.58 58.404C195.58 57.948 195.644 57.524 195.772 57.132C195.9 56.732 196.092 56.388 196.348 56.1C196.604 55.804 196.92 55.572 197.296 55.404C197.672 55.236 198.104 55.152 198.592 55.152C199.088 55.152 199.52 55.236 199.888 55.404C200.264 55.572 200.58 55.804 200.836 56.1C201.092 56.388 201.284 56.732 201.412 57.132C201.54 57.524 201.604 57.948 201.604 58.404C201.604 58.86 201.54 59.284 201.412 59.676C201.284 60.068 201.092 60.412 200.836 60.708C200.58 60.996 200.264 61.224 199.888 61.392C199.52 61.552 199.088 61.632 198.592 61.632C198.104 61.632 197.672 61.552 197.296 61.392C196.92 61.224 196.604 60.996 196.348 60.708C196.092 60.412 195.9 60.068 195.772 59.676C195.644 59.284 195.58 58.86 195.58 58.404ZM203.431 59.544C203.439 59.768 203.491 59.96 203.587 60.12C203.683 60.272 203.807 60.396 203.959 60.492C204.119 60.58 204.295 60.644 204.487 60.684C204.687 60.724 204.891 60.744 205.099 60.744C205.259 60.744 205.427 60.732 205.603 60.708C205.779 60.684 205.939 60.64 206.083 60.576C206.235 60.512 206.359 60.42 206.455 60.3C206.551 60.172 206.599 60.012 206.599 59.82C206.599 59.556 206.499 59.356 206.299 59.22C206.099 59.084 205.847 58.976 205.543 58.896C205.247 58.808 204.923 58.732 204.571 58.668C204.219 58.596 203.891 58.5 203.587 58.38C203.291 58.252 203.043 58.076 202.843 57.852C202.643 57.628 202.543 57.316 202.543 56.916C202.543 56.604 202.611 56.336 202.747 56.112C202.891 55.888 203.071 55.708 203.287 55.572C203.511 55.428 203.759 55.324 204.031 55.26C204.311 55.188 204.587 55.152 204.859 55.152C205.211 55.152 205.535 55.184 205.831 55.248C206.127 55.304 206.387 55.408 206.611 55.56C206.843 55.704 207.027 55.904 207.163 56.16C207.299 56.408 207.379 56.72 207.403 57.096H206.383C206.367 56.896 206.315 56.732 206.227 56.604C206.139 56.468 206.027 56.36 205.891 56.28C205.755 56.2 205.603 56.144 205.435 56.112C205.275 56.072 205.111 56.052 204.943 56.052C204.791 56.052 204.635 56.064 204.475 56.088C204.323 56.112 204.183 56.156 204.055 56.22C203.927 56.276 203.823 56.356 203.743 56.46C203.663 56.556 203.623 56.684 203.623 56.844C203.623 57.02 203.683 57.168 203.803 57.288C203.931 57.4 204.091 57.496 204.283 57.576C204.475 57.648 204.691 57.712 204.931 57.768C205.171 57.816 205.411 57.868 205.651 57.924C205.907 57.98 206.155 58.048 206.395 58.128C206.643 58.208 206.859 58.316 207.043 58.452C207.235 58.58 207.387 58.744 207.499 58.944C207.619 59.144 207.679 59.392 207.679 59.688C207.679 60.064 207.599 60.376 207.439 60.624C207.287 60.872 207.083 61.072 206.827 61.224C206.579 61.376 206.295 61.48 205.975 61.536C205.663 61.6 205.351 61.632 205.039 61.632C204.695 61.632 204.367 61.596 204.055 61.524C203.743 61.452 203.467 61.336 203.227 61.176C202.987 61.008 202.795 60.792 202.651 60.528C202.507 60.256 202.427 59.928 202.411 59.544H203.431ZM210.223 55.296H211.459V56.196H210.223V60.048C210.223 60.168 210.231 60.264 210.247 60.336C210.271 60.408 210.311 60.464 210.367 60.504C210.423 60.544 210.499 60.572 210.595 60.588C210.699 60.596 210.831 60.6 210.991 60.6H211.459V61.5H210.679C210.415 61.5 210.187 61.484 209.995 61.452C209.811 61.412 209.659 61.344 209.539 61.248C209.427 61.152 209.343 61.016 209.287 60.84C209.231 60.664 209.203 60.432 209.203 60.144V56.196H208.147V55.296H209.203V53.436H210.223V55.296ZM213.216 59.544C213.224 59.768 213.276 59.96 213.372 60.12C213.468 60.272 213.592 60.396 213.744 60.492C213.904 60.58 214.08 60.644 214.272 60.684C214.472 60.724 214.676 60.744 214.884 60.744C215.044 60.744 215.212 60.732 215.388 60.708C215.564 60.684 215.724 60.64 215.868 60.576C216.02 60.512 216.144 60.42 216.24 60.3C216.336 60.172 216.384 60.012 216.384 59.82C216.384 59.556 216.284 59.356 216.084 59.22C215.884 59.084 215.632 58.976 215.328 58.896C215.032 58.808 214.708 58.732 214.356 58.668C214.004 58.596 213.676 58.5 213.372 58.38C213.076 58.252 212.828 58.076 212.628 57.852C212.428 57.628 212.328 57.316 212.328 56.916C212.328 56.604 212.396 56.336 212.532 56.112C212.676 55.888 212.856 55.708 213.072 55.572C213.296 55.428 213.544 55.324 213.816 55.26C214.096 55.188 214.372 55.152 214.644 55.152C214.996 55.152 215.32 55.184 215.616 55.248C215.912 55.304 216.172 55.408 216.396 55.56C216.628 55.704 216.812 55.904 216.948 56.16C217.084 56.408 217.164 56.72 217.188 57.096H216.168C216.152 56.896 216.1 56.732 216.012 56.604C215.924 56.468 215.812 56.36 215.676 56.28C215.54 56.2 215.388 56.144 215.22 56.112C215.06 56.072 214.896 56.052 214.728 56.052C214.576 56.052 214.42 56.064 214.26 56.088C214.108 56.112 213.968 56.156 213.84 56.22C213.712 56.276 213.608 56.356 213.528 56.46C213.448 56.556 213.408 56.684 213.408 56.844C213.408 57.02 213.468 57.168 213.588 57.288C213.716 57.4 213.876 57.496 214.068 57.576C214.26 57.648 214.476 57.712 214.716 57.768C214.956 57.816 215.196 57.868 215.436 57.924C215.692 57.98 215.94 58.048 216.18 58.128C216.428 58.208 216.644 58.316 216.828 58.452C217.02 58.58 217.172 58.744 217.284 58.944C217.404 59.144 217.464 59.392 217.464 59.688C217.464 60.064 217.384 60.376 217.224 60.624C217.072 60.872 216.868 61.072 216.612 61.224C216.364 61.376 216.08 61.48 215.76 61.536C215.448 61.6 215.136 61.632 214.824 61.632C214.48 61.632 214.152 61.596 213.84 61.524C213.528 61.452 213.252 61.336 213.012 61.176C212.772 61.008 212.58 60.792 212.436 60.528C212.292 60.256 212.212 59.928 212.196 59.544H213.216ZM235.48 61.5H234.184L231.172 52.932H232.396L234.844 60.36H234.868L237.34 52.932H238.528L235.48 61.5ZM239.364 58.404C239.364 58.78 239.412 59.116 239.508 59.412C239.612 59.7 239.752 59.944 239.928 60.144C240.104 60.336 240.308 60.484 240.54 60.588C240.78 60.692 241.032 60.744 241.296 60.744C241.56 60.744 241.808 60.692 242.04 60.588C242.28 60.484 242.488 60.336 242.664 60.144C242.84 59.944 242.976 59.7 243.072 59.412C243.176 59.116 243.228 58.78 243.228 58.404C243.228 58.028 243.176 57.696 243.072 57.408C242.976 57.112 242.84 56.864 242.664 56.664C242.488 56.464 242.28 56.312 242.04 56.208C241.808 56.104 241.56 56.052 241.296 56.052C241.032 56.052 240.78 56.104 240.54 56.208C240.308 56.312 240.104 56.464 239.928 56.664C239.752 56.864 239.612 57.112 239.508 57.408C239.412 57.696 239.364 58.028 239.364 58.404ZM238.284 58.404C238.284 57.948 238.348 57.524 238.476 57.132C238.604 56.732 238.796 56.388 239.052 56.1C239.308 55.804 239.624 55.572 240 55.404C240.376 55.236 240.808 55.152 241.296 55.152C241.792 55.152 242.224 55.236 242.592 55.404C242.968 55.572 243.284 55.804 243.54 56.1C243.796 56.388 243.988 56.732 244.116 57.132C244.244 57.524 244.308 57.948 244.308 58.404C244.308 58.86 244.244 59.284 244.116 59.676C243.988 60.068 243.796 60.412 243.54 60.708C243.284 60.996 242.968 61.224 242.592 61.392C242.224 61.552 241.792 61.632 241.296 61.632C240.808 61.632 240.376 61.552 240 61.392C239.624 61.224 239.308 60.996 239.052 60.708C238.796 60.412 238.604 60.068 238.476 59.676C238.348 59.284 238.284 58.86 238.284 58.404ZM246.59 54.18H245.57V52.932H246.59V54.18ZM245.57 55.296H246.59V61.5H245.57V55.296ZM252.382 57.288C252.302 56.896 252.134 56.592 251.878 56.376C251.622 56.16 251.278 56.052 250.846 56.052C250.478 56.052 250.17 56.12 249.922 56.256C249.674 56.392 249.474 56.572 249.322 56.796C249.178 57.02 249.074 57.28 249.01 57.576C248.946 57.864 248.914 58.164 248.914 58.476C248.914 58.764 248.946 59.044 249.01 59.316C249.082 59.588 249.19 59.832 249.334 60.048C249.478 60.256 249.666 60.424 249.898 60.552C250.13 60.68 250.406 60.744 250.726 60.744C251.23 60.744 251.622 60.612 251.902 60.348C252.19 60.084 252.366 59.712 252.43 59.232H253.474C253.362 60 253.074 60.592 252.61 61.008C252.154 61.424 251.53 61.632 250.738 61.632C250.266 61.632 249.846 61.556 249.478 61.404C249.118 61.252 248.814 61.036 248.566 60.756C248.326 60.476 248.142 60.144 248.014 59.76C247.894 59.368 247.834 58.94 247.834 58.476C247.834 58.012 247.894 57.58 248.014 57.18C248.134 56.772 248.314 56.42 248.554 56.124C248.802 55.82 249.11 55.584 249.478 55.416C249.846 55.24 250.274 55.152 250.762 55.152C251.114 55.152 251.442 55.196 251.746 55.284C252.058 55.364 252.33 55.492 252.562 55.668C252.802 55.844 252.998 56.068 253.15 56.34C253.302 56.604 253.398 56.92 253.438 57.288H252.382ZM258.924 57.804C258.908 57.564 258.852 57.336 258.756 57.12C258.668 56.904 258.544 56.72 258.384 56.568C258.232 56.408 258.048 56.284 257.832 56.196C257.624 56.1 257.392 56.052 257.136 56.052C256.872 56.052 256.632 56.1 256.416 56.196C256.208 56.284 256.028 56.408 255.876 56.568C255.724 56.728 255.604 56.916 255.516 57.132C255.428 57.34 255.376 57.564 255.36 57.804H258.924ZM259.908 59.532C259.772 60.228 259.472 60.752 259.008 61.104C258.544 61.456 257.96 61.632 257.256 61.632C256.76 61.632 256.328 61.552 255.96 61.392C255.6 61.232 255.296 61.008 255.048 60.72C254.8 60.432 254.612 60.088 254.484 59.688C254.364 59.288 254.296 58.852 254.28 58.38C254.28 57.908 254.352 57.476 254.496 57.084C254.64 56.692 254.84 56.352 255.096 56.064C255.36 55.776 255.668 55.552 256.02 55.392C256.38 55.232 256.772 55.152 257.196 55.152C257.748 55.152 258.204 55.268 258.564 55.5C258.932 55.724 259.224 56.012 259.44 56.364C259.664 56.716 259.816 57.1 259.896 57.516C259.984 57.932 260.02 58.328 260.004 58.704H255.36C255.352 58.976 255.384 59.236 255.456 59.484C255.528 59.724 255.644 59.94 255.804 60.132C255.964 60.316 256.168 60.464 256.416 60.576C256.664 60.688 256.956 60.744 257.292 60.744C257.724 60.744 258.076 60.644 258.348 60.444C258.628 60.244 258.812 59.94 258.9 59.532H259.908ZM265.709 57.036H267.941C268.589 57.044 269.061 56.912 269.357 56.64C269.661 56.368 269.813 55.976 269.813 55.464C269.813 54.952 269.661 54.564 269.357 54.3C269.061 54.028 268.589 53.892 267.941 53.892H265.709V57.036ZM264.569 52.932H268.325C269.189 52.932 269.841 53.156 270.281 53.604C270.729 54.044 270.953 54.664 270.953 55.464C270.953 56.264 270.729 56.888 270.281 57.336C269.841 57.784 269.189 58.004 268.325 57.996H265.709V61.5H264.569V52.932ZM272.926 58.404C272.926 58.78 272.974 59.116 273.07 59.412C273.174 59.7 273.314 59.944 273.49 60.144C273.666 60.336 273.87 60.484 274.102 60.588C274.342 60.692 274.594 60.744 274.858 60.744C275.122 60.744 275.37 60.692 275.602 60.588C275.842 60.484 276.05 60.336 276.226 60.144C276.402 59.944 276.538 59.7 276.634 59.412C276.738 59.116 276.79 58.78 276.79 58.404C276.79 58.028 276.738 57.696 276.634 57.408C276.538 57.112 276.402 56.864 276.226 56.664C276.05 56.464 275.842 56.312 275.602 56.208C275.37 56.104 275.122 56.052 274.858 56.052C274.594 56.052 274.342 56.104 274.102 56.208C273.87 56.312 273.666 56.464 273.49 56.664C273.314 56.864 273.174 57.112 273.07 57.408C272.974 57.696 272.926 58.028 272.926 58.404ZM271.846 58.404C271.846 57.948 271.91 57.524 272.038 57.132C272.166 56.732 272.358 56.388 272.614 56.1C272.87 55.804 273.186 55.572 273.562 55.404C273.938 55.236 274.37 55.152 274.858 55.152C275.354 55.152 275.786 55.236 276.154 55.404C276.53 55.572 276.846 55.804 277.102 56.1C277.358 56.388 277.55 56.732 277.678 57.132C277.806 57.524 277.87 57.948 277.87 58.404C277.87 58.86 277.806 59.284 277.678 59.676C277.55 60.068 277.358 60.412 277.102 60.708C276.846 60.996 276.53 61.224 276.154 61.392C275.786 61.552 275.354 61.632 274.858 61.632C274.37 61.632 273.938 61.552 273.562 61.392C273.186 61.224 272.87 60.996 272.614 60.708C272.358 60.412 272.166 60.068 272.038 59.676C271.91 59.284 271.846 58.86 271.846 58.404ZM285.217 61.5H284.137L282.877 56.568H282.853L281.605 61.5H280.501L278.509 55.296H279.637L281.041 60.372H281.065L282.313 55.296H283.429L284.725 60.372H284.749L286.141 55.296H287.197L285.217 61.5ZM292.474 57.804C292.458 57.564 292.402 57.336 292.306 57.12C292.218 56.904 292.094 56.72 291.934 56.568C291.782 56.408 291.598 56.284 291.382 56.196C291.174 56.1 290.942 56.052 290.686 56.052C290.422 56.052 290.182 56.1 289.966 56.196C289.758 56.284 289.578 56.408 289.426 56.568C289.274 56.728 289.154 56.916 289.066 57.132C288.978 57.34 288.926 57.564 288.91 57.804H292.474ZM293.458 59.532C293.322 60.228 293.022 60.752 292.558 61.104C292.094 61.456 291.51 61.632 290.806 61.632C290.31 61.632 289.878 61.552 289.51 61.392C289.15 61.232 288.846 61.008 288.598 60.72C288.35 60.432 288.162 60.088 288.034 59.688C287.914 59.288 287.846 58.852 287.83 58.38C287.83 57.908 287.902 57.476 288.046 57.084C288.19 56.692 288.39 56.352 288.646 56.064C288.91 55.776 289.218 55.552 289.57 55.392C289.93 55.232 290.322 55.152 290.746 55.152C291.298 55.152 291.754 55.268 292.114 55.5C292.482 55.724 292.774 56.012 292.99 56.364C293.214 56.716 293.366 57.1 293.446 57.516C293.534 57.932 293.57 58.328 293.554 58.704H288.91C288.902 58.976 288.934 59.236 289.006 59.484C289.078 59.724 289.194 59.94 289.354 60.132C289.514 60.316 289.718 60.464 289.966 60.576C290.214 60.688 290.506 60.744 290.842 60.744C291.274 60.744 291.626 60.644 291.898 60.444C292.178 60.244 292.362 59.94 292.45 59.532H293.458ZM294.576 55.296H295.536V56.604H295.56C295.808 56.1 296.112 55.728 296.472 55.488C296.832 55.248 297.288 55.136 297.84 55.152V56.232C297.432 56.232 297.084 56.288 296.796 56.4C296.508 56.512 296.276 56.676 296.1 56.892C295.924 57.108 295.796 57.372 295.716 57.684C295.636 57.988 295.596 58.34 295.596 58.74V61.5H294.576V55.296Z" fill="#404449"/>
<path d="M223.9 56.58C224.124 56.588 224.348 56.572 224.572 56.532C224.796 56.492 224.996 56.424 225.172 56.328C225.348 56.224 225.488 56.084 225.592 55.908C225.704 55.732 225.76 55.516 225.76 55.26C225.76 54.9 225.636 54.612 225.388 54.396C225.148 54.18 224.836 54.072 224.452 54.072C224.212 54.072 224.004 54.12 223.828 54.216C223.652 54.312 223.504 54.444 223.384 54.612C223.272 54.772 223.188 54.956 223.132 55.164C223.076 55.364 223.052 55.572 223.06 55.788H221.692C221.708 55.38 221.784 55.004 221.92 54.66C222.056 54.308 222.24 54.004 222.472 53.748C222.712 53.492 223 53.292 223.336 53.148C223.672 53.004 224.052 52.932 224.476 52.932C224.804 52.932 225.124 52.98 225.436 53.076C225.756 53.172 226.04 53.312 226.288 53.496C226.544 53.68 226.748 53.916 226.9 54.204C227.052 54.484 227.128 54.808 227.128 55.176C227.128 55.6 227.032 55.972 226.84 56.292C226.648 56.604 226.348 56.832 225.94 56.976V57C226.42 57.096 226.792 57.336 227.056 57.72C227.328 58.096 227.464 58.556 227.464 59.1C227.464 59.5 227.384 59.86 227.224 60.18C227.064 60.492 226.848 60.76 226.576 60.984C226.304 61.2 225.988 61.368 225.628 61.488C225.268 61.608 224.888 61.668 224.488 61.668C224 61.668 223.572 61.6 223.204 61.464C222.844 61.32 222.54 61.12 222.292 60.864C222.052 60.608 221.868 60.3 221.74 59.94C221.612 59.58 221.544 59.18 221.536 58.74H222.904C222.888 59.252 223.012 59.68 223.276 60.024C223.548 60.36 223.952 60.528 224.488 60.528C224.944 60.528 225.324 60.4 225.628 60.144C225.94 59.88 226.096 59.508 226.096 59.028C226.096 58.7 226.032 58.44 225.904 58.248C225.776 58.056 225.608 57.912 225.4 57.816C225.192 57.712 224.956 57.648 224.692 57.624C224.436 57.6 224.172 57.592 223.9 57.6V56.58Z" fill="#1E1E1E"/>
</g>
<defs>
<filter id="filter0_d_119_131" x="64" y="19" width="236" height="176" filterUnits="userSpaceOnUse" color-interpolation-filters="sRGB">
<feFlood flood-opacity="0" result="BackgroundImageFix"/>
<feColorMatrix in="SourceAlpha" type="matrix" values="0 0 0 0 0 0 0 0 0 0 0 0 0 0 0 0 0 0 127 0" result="hardAlpha"/>
<feOffset dy="4"/>
<feGaussianBlur stdDeviation="22"/>
<feComposite in2="hardAlpha" operator="out"/>
<feColorMatrix type="matrix" values="0 0 0 0 0 0 0 0 0 0 0 0 0 0 0 0 0 0 0.1 0"/>
<feBlend mode="normal" in2="BackgroundImageFix" result="effect1_dropShadow_119_131"/>
<feBlend mode="normal" in="SourceGraphic" in2="effect1_dropShadow_119_131" result="shape"/>
</filter>
<filter id="filter1_d_119_131" x="0" y="0" width="364" height="122" filterUnits="userSpaceOnUse" color-interpolation-filters="sRGB">
<feFlood flood-opacity="0" result="BackgroundImageFix"/>
<feColorMatrix in="SourceAlpha" type="matrix" values="0 0 0 0 0 0 0 0 0 0 0 0 0 0 0 0 0 0 127 0" result="hardAlpha"/>
<feOffset dy="4"/>
<feGaussianBlur stdDeviation="22"/>
<feComposite in2="hardAlpha" operator="out"/>
<feColorMatrix type="matrix" values="0 0 0 0 0 0 0 0 0 0 0 0 0 0 0 0 0 0 0.1 0"/>
<feBlend mode="normal" in2="BackgroundImageFix" result="effect1_dropShadow_119_131"/>
<feBlend mode="normal" in="SourceGraphic" in2="effect1_dropShadow_119_131" result="shape"/>
</filter>
<clipPath id="clip0_119_131">
<rect x="56" y="49" width="16" height="16" rx="8" fill="white"/>
</clipPath>
</defs>
</svg>
