<svg width="454" height="250" viewBox="0 0 454 250" fill="none" xmlns="http://www.w3.org/2000/svg">
<g filter="url(#filter0_d_121_176)">
<rect x="44" y="69" width="366" height="133" rx="12" fill="white"/>
<rect x="60" y="85" width="334" height="5" rx="2.5" fill="#DBDCDE"/>
<rect x="60" y="99" width="334" height="5" rx="2.5" fill="#DBDCDE"/>
<rect x="60" y="113" width="334" height="5" rx="2.5" fill="#DBDCDE"/>
<rect x="60" y="127" width="269" height="5" rx="2.5" fill="#DBDCDE"/>
<line x1="60" y1="146.5" x2="394" y2="146.5" stroke="#F0F1F1" stroke-opacity="0.68"/>
<g clip-path="url(#clip0_121_176)">
<path d="M83.5625 157.906H65.4375C64.2359 157.907 63.0836 158.384 62.234 159.234C61.3843 160.084 60.9067 161.236 60.9062 162.438V180.562C60.9067 181.764 61.3843 182.916 62.234 183.766C63.0836 184.616 64.2359 185.093 65.4375 185.094H83.5625C84.7641 185.093 85.9164 184.616 86.766 183.766C87.6157 182.916 88.0933 181.764 88.0938 180.562V162.438C88.0933 161.236 87.6157 160.084 86.766 159.234C85.9164 158.384 84.7641 157.907 83.5625 157.906ZM68.1562 173.312C68.1562 173.553 68.0608 173.783 67.8908 173.953C67.7209 174.123 67.4904 174.219 67.25 174.219C67.0096 174.219 66.7791 174.123 66.6092 173.953C66.4392 173.783 66.3438 173.553 66.3438 173.312V169.688C66.3438 169.447 66.4392 169.217 66.6092 169.047C66.7791 168.877 67.0096 168.781 67.25 168.781C67.4904 168.781 67.7209 168.877 67.8908 169.047C68.0608 169.217 68.1562 169.447 68.1562 169.688V173.312ZM71.7812 175.125C71.7812 175.365 71.6858 175.596 71.5158 175.766C71.3459 175.936 71.1154 176.031 70.875 176.031C70.6346 176.031 70.4041 175.936 70.2342 175.766C70.0642 175.596 69.9688 175.365 69.9688 175.125V167.875C69.9688 167.635 70.0642 167.404 70.2342 167.234C70.4041 167.064 70.6346 166.969 70.875 166.969C71.1154 166.969 71.3459 167.064 71.5158 167.234C71.6858 167.404 71.7812 167.635 71.7812 167.875V175.125ZM75.4062 176.938C75.4062 177.178 75.3108 177.408 75.1408 177.578C74.9709 177.748 74.7404 177.844 74.5 177.844C74.2596 177.844 74.0291 177.748 73.8592 177.578C73.6892 177.408 73.5938 177.178 73.5938 176.938V166.062C73.5938 165.822 73.6892 165.592 73.8592 165.422C74.0291 165.252 74.2596 165.156 74.5 165.156C74.7404 165.156 74.9709 165.252 75.1408 165.422C75.3108 165.592 75.4062 165.822 75.4062 166.062V176.938ZM79.0312 175.125C79.0312 175.365 78.9358 175.596 78.7658 175.766C78.5959 175.936 78.3654 176.031 78.125 176.031C77.8846 176.031 77.6541 175.936 77.4842 175.766C77.3142 175.596 77.2188 175.365 77.2188 175.125V167.875C77.2188 167.635 77.3142 167.404 77.4842 167.234C77.6541 167.064 77.8846 166.969 78.125 166.969C78.3654 166.969 78.5959 167.064 78.7658 167.234C78.9358 167.404 79.0312 167.635 79.0312 167.875V175.125ZM82.6562 173.312C82.6562 173.553 82.5608 173.783 82.3908 173.953C82.2209 174.123 81.9904 174.219 81.75 174.219C81.5096 174.219 81.2791 174.123 81.1092 173.953C80.9392 173.783 80.8438 173.553 80.8438 173.312V169.688C80.8438 169.447 80.9392 169.217 81.1092 169.047C81.2791 168.877 81.5096 168.781 81.75 168.781C81.9904 168.781 82.2209 168.877 82.3908 169.047C82.5608 169.217 82.6562 169.447 82.6562 169.688V173.312Z" fill="#FFB320"/>
</g>
<path d="M104.755 177.5H97.585C97.595 176.63 97.805 175.87 98.215 175.22C98.625 174.57 99.185 174.005 99.895 173.525C100.235 173.275 100.59 173.035 100.96 172.805C101.33 172.565 101.67 172.31 101.98 172.04C102.29 171.77 102.545 171.48 102.745 171.17C102.945 170.85 103.05 170.485 103.06 170.075C103.06 169.885 103.035 169.685 102.985 169.475C102.945 169.255 102.86 169.055 102.73 168.875C102.6 168.685 102.42 168.53 102.19 168.41C101.96 168.28 101.66 168.215 101.29 168.215C100.95 168.215 100.665 168.285 100.435 168.425C100.215 168.555 100.035 168.74 99.895 168.98C99.765 169.21 99.665 169.485 99.595 169.805C99.535 170.125 99.5 170.47 99.49 170.84H97.78C97.78 170.26 97.855 169.725 98.005 169.235C98.165 168.735 98.4 168.305 98.71 167.945C99.02 167.585 99.395 167.305 99.835 167.105C100.285 166.895 100.805 166.79 101.395 166.79C102.035 166.79 102.57 166.895 103 167.105C103.43 167.315 103.775 167.58 104.035 167.9C104.305 168.22 104.495 168.57 104.605 168.95C104.715 169.32 104.77 169.675 104.77 170.015C104.77 170.435 104.705 170.815 104.575 171.155C104.445 171.495 104.27 171.81 104.05 172.1C103.83 172.38 103.58 172.64 103.3 172.88C103.02 173.12 102.73 173.345 102.43 173.555C102.13 173.765 101.83 173.965 101.53 174.155C101.23 174.345 100.95 174.535 100.69 174.725C100.44 174.915 100.22 175.115 100.03 175.325C99.84 175.525 99.71 175.74 99.64 175.97H104.755V177.5ZM109.505 166.79C110.255 166.79 110.865 166.965 111.335 167.315C111.815 167.655 112.185 168.095 112.445 168.635C112.715 169.165 112.895 169.75 112.985 170.39C113.085 171.03 113.135 171.65 113.135 172.25C113.135 172.85 113.085 173.47 112.985 174.11C112.895 174.75 112.715 175.34 112.445 175.88C112.185 176.41 111.815 176.85 111.335 177.2C110.865 177.54 110.255 177.71 109.505 177.71C108.755 177.71 108.14 177.54 107.66 177.2C107.19 176.85 106.82 176.41 106.55 175.88C106.29 175.34 106.11 174.75 106.01 174.11C105.92 173.47 105.875 172.85 105.875 172.25C105.875 171.65 105.92 171.03 106.01 170.39C106.11 169.75 106.29 169.165 106.55 168.635C106.82 168.095 107.19 167.655 107.66 167.315C108.14 166.965 108.755 166.79 109.505 166.79ZM109.505 176.285C109.875 176.285 110.185 176.18 110.435 175.97C110.685 175.75 110.88 175.46 111.02 175.1C111.17 174.73 111.275 174.3 111.335 173.81C111.395 173.32 111.425 172.8 111.425 172.25C111.425 171.7 111.395 171.185 111.335 170.705C111.275 170.215 111.17 169.785 111.02 169.415C110.88 169.045 110.685 168.755 110.435 168.545C110.185 168.325 109.875 168.215 109.505 168.215C109.125 168.215 108.81 168.325 108.56 168.545C108.32 168.755 108.125 169.045 107.975 169.415C107.835 169.785 107.735 170.215 107.675 170.705C107.615 171.185 107.585 171.7 107.585 172.25C107.585 172.8 107.615 173.32 107.675 173.81C107.735 174.3 107.835 174.73 107.975 175.1C108.125 175.46 108.32 175.75 108.56 175.97C108.81 176.18 109.125 176.285 109.505 176.285ZM120.574 177.5H119.482L117.178 171.296H118.318L120.058 176.468H120.082L121.774 171.296H122.842L120.574 177.5ZM124.522 174.404C124.522 174.78 124.57 175.116 124.666 175.412C124.77 175.7 124.91 175.944 125.086 176.144C125.262 176.336 125.466 176.484 125.698 176.588C125.938 176.692 126.19 176.744 126.454 176.744C126.718 176.744 126.966 176.692 127.198 176.588C127.438 176.484 127.646 176.336 127.822 176.144C127.998 175.944 128.134 175.7 128.23 175.412C128.334 175.116 128.386 174.78 128.386 174.404C128.386 174.028 128.334 173.696 128.23 173.408C128.134 173.112 127.998 172.864 127.822 172.664C127.646 172.464 127.438 172.312 127.198 172.208C126.966 172.104 126.718 172.052 126.454 172.052C126.19 172.052 125.938 172.104 125.698 172.208C125.466 172.312 125.262 172.464 125.086 172.664C124.91 172.864 124.77 173.112 124.666 173.408C124.57 173.696 124.522 174.028 124.522 174.404ZM123.442 174.404C123.442 173.948 123.506 173.524 123.634 173.132C123.762 172.732 123.954 172.388 124.21 172.1C124.466 171.804 124.782 171.572 125.158 171.404C125.534 171.236 125.966 171.152 126.454 171.152C126.95 171.152 127.382 171.236 127.75 171.404C128.126 171.572 128.442 171.804 128.698 172.1C128.954 172.388 129.146 172.732 129.274 173.132C129.402 173.524 129.466 173.948 129.466 174.404C129.466 174.86 129.402 175.284 129.274 175.676C129.146 176.068 128.954 176.412 128.698 176.708C128.442 176.996 128.126 177.224 127.75 177.392C127.382 177.552 126.95 177.632 126.454 177.632C125.966 177.632 125.534 177.552 125.158 177.392C124.782 177.224 124.466 176.996 124.21 176.708C123.954 176.412 123.762 176.068 123.634 175.676C123.506 175.284 123.442 174.86 123.442 174.404ZM131.748 170.18H130.728V168.932H131.748V170.18ZM130.728 171.296H131.748V177.5H130.728V171.296ZM137.541 173.288C137.461 172.896 137.293 172.592 137.037 172.376C136.781 172.16 136.437 172.052 136.005 172.052C135.637 172.052 135.329 172.12 135.081 172.256C134.833 172.392 134.633 172.572 134.481 172.796C134.337 173.02 134.233 173.28 134.169 173.576C134.105 173.864 134.073 174.164 134.073 174.476C134.073 174.764 134.105 175.044 134.169 175.316C134.241 175.588 134.349 175.832 134.493 176.048C134.637 176.256 134.825 176.424 135.057 176.552C135.289 176.68 135.565 176.744 135.885 176.744C136.389 176.744 136.781 176.612 137.061 176.348C137.349 176.084 137.525 175.712 137.589 175.232H138.633C138.521 176 138.233 176.592 137.769 177.008C137.313 177.424 136.689 177.632 135.897 177.632C135.425 177.632 135.005 177.556 134.637 177.404C134.277 177.252 133.973 177.036 133.725 176.756C133.485 176.476 133.301 176.144 133.173 175.76C133.053 175.368 132.993 174.94 132.993 174.476C132.993 174.012 133.053 173.58 133.173 173.18C133.293 172.772 133.473 172.42 133.713 172.124C133.961 171.82 134.269 171.584 134.637 171.416C135.005 171.24 135.433 171.152 135.921 171.152C136.273 171.152 136.601 171.196 136.905 171.284C137.217 171.364 137.489 171.492 137.721 171.668C137.961 171.844 138.157 172.068 138.309 172.34C138.461 172.604 138.557 172.92 138.597 173.288H137.541ZM144.082 173.804C144.066 173.564 144.01 173.336 143.914 173.12C143.826 172.904 143.702 172.72 143.542 172.568C143.39 172.408 143.206 172.284 142.99 172.196C142.782 172.1 142.55 172.052 142.294 172.052C142.03 172.052 141.79 172.1 141.574 172.196C141.366 172.284 141.186 172.408 141.034 172.568C140.882 172.728 140.762 172.916 140.674 173.132C140.586 173.34 140.534 173.564 140.518 173.804H144.082ZM145.066 175.532C144.93 176.228 144.63 176.752 144.166 177.104C143.702 177.456 143.118 177.632 142.414 177.632C141.918 177.632 141.486 177.552 141.118 177.392C140.758 177.232 140.454 177.008 140.206 176.72C139.958 176.432 139.77 176.088 139.642 175.688C139.522 175.288 139.454 174.852 139.438 174.38C139.438 173.908 139.51 173.476 139.654 173.084C139.798 172.692 139.998 172.352 140.254 172.064C140.518 171.776 140.826 171.552 141.178 171.392C141.538 171.232 141.93 171.152 142.354 171.152C142.906 171.152 143.362 171.268 143.722 171.5C144.09 171.724 144.382 172.012 144.598 172.364C144.822 172.716 144.974 173.1 145.054 173.516C145.142 173.932 145.178 174.328 145.162 174.704H140.518C140.51 174.976 140.542 175.236 140.614 175.484C140.686 175.724 140.802 175.94 140.962 176.132C141.122 176.316 141.326 176.464 141.574 176.576C141.822 176.688 142.114 176.744 142.45 176.744C142.882 176.744 143.234 176.644 143.506 176.444C143.786 176.244 143.97 175.94 144.058 175.532H145.066ZM149.595 171.296H150.615V172.136H150.639C150.807 171.792 151.071 171.544 151.431 171.392C151.791 171.232 152.187 171.152 152.619 171.152C153.099 171.152 153.515 171.24 153.867 171.416C154.227 171.592 154.523 171.832 154.755 172.136C154.995 172.432 155.175 172.776 155.295 173.168C155.415 173.56 155.475 173.976 155.475 174.416C155.475 174.856 155.415 175.272 155.295 175.664C155.183 176.056 155.007 176.4 154.767 176.696C154.535 176.984 154.239 177.212 153.879 177.38C153.527 177.548 153.115 177.632 152.643 177.632C152.491 177.632 152.319 177.616 152.127 177.584C151.943 177.552 151.759 177.5 151.575 177.428C151.391 177.356 151.215 177.26 151.047 177.14C150.887 177.012 150.751 176.856 150.639 176.672H150.615V179.864H149.595V171.296ZM154.395 174.344C154.395 174.056 154.355 173.776 154.275 173.504C154.203 173.224 154.087 172.976 153.927 172.76C153.775 172.544 153.575 172.372 153.327 172.244C153.087 172.116 152.803 172.052 152.475 172.052C152.131 172.052 151.839 172.12 151.599 172.256C151.359 172.392 151.163 172.572 151.011 172.796C150.859 173.012 150.747 173.26 150.675 173.54C150.611 173.82 150.579 174.104 150.579 174.392C150.579 174.696 150.615 174.992 150.687 175.28C150.759 175.56 150.871 175.808 151.023 176.024C151.183 176.24 151.387 176.416 151.635 176.552C151.883 176.68 152.183 176.744 152.535 176.744C152.887 176.744 153.179 176.676 153.411 176.54C153.651 176.404 153.843 176.224 153.987 176C154.131 175.776 154.235 175.52 154.299 175.232C154.363 174.944 154.395 174.648 154.395 174.344ZM157.416 174.404C157.416 174.78 157.464 175.116 157.56 175.412C157.664 175.7 157.804 175.944 157.98 176.144C158.156 176.336 158.36 176.484 158.592 176.588C158.832 176.692 159.084 176.744 159.348 176.744C159.612 176.744 159.86 176.692 160.092 176.588C160.332 176.484 160.54 176.336 160.716 176.144C160.892 175.944 161.028 175.7 161.124 175.412C161.228 175.116 161.28 174.78 161.28 174.404C161.28 174.028 161.228 173.696 161.124 173.408C161.028 173.112 160.892 172.864 160.716 172.664C160.54 172.464 160.332 172.312 160.092 172.208C159.86 172.104 159.612 172.052 159.348 172.052C159.084 172.052 158.832 172.104 158.592 172.208C158.36 172.312 158.156 172.464 157.98 172.664C157.804 172.864 157.664 173.112 157.56 173.408C157.464 173.696 157.416 174.028 157.416 174.404ZM156.336 174.404C156.336 173.948 156.4 173.524 156.528 173.132C156.656 172.732 156.848 172.388 157.104 172.1C157.36 171.804 157.676 171.572 158.052 171.404C158.428 171.236 158.86 171.152 159.348 171.152C159.844 171.152 160.276 171.236 160.644 171.404C161.02 171.572 161.336 171.804 161.592 172.1C161.848 172.388 162.04 172.732 162.168 173.132C162.296 173.524 162.36 173.948 162.36 174.404C162.36 174.86 162.296 175.284 162.168 175.676C162.04 176.068 161.848 176.412 161.592 176.708C161.336 176.996 161.02 177.224 160.644 177.392C160.276 177.552 159.844 177.632 159.348 177.632C158.86 177.632 158.428 177.552 158.052 177.392C157.676 177.224 157.36 176.996 157.104 176.708C156.848 176.412 156.656 176.068 156.528 175.676C156.4 175.284 156.336 174.86 156.336 174.404ZM169.707 177.5H168.627L167.367 172.568H167.343L166.095 177.5H164.991L162.999 171.296H164.127L165.531 176.372H165.555L166.803 171.296H167.919L169.215 176.372H169.239L170.631 171.296H171.687L169.707 177.5ZM176.965 173.804C176.949 173.564 176.893 173.336 176.797 173.12C176.709 172.904 176.585 172.72 176.425 172.568C176.273 172.408 176.089 172.284 175.873 172.196C175.665 172.1 175.433 172.052 175.177 172.052C174.913 172.052 174.673 172.1 174.457 172.196C174.249 172.284 174.069 172.408 173.917 172.568C173.765 172.728 173.645 172.916 173.557 173.132C173.469 173.34 173.417 173.564 173.401 173.804H176.965ZM177.949 175.532C177.813 176.228 177.513 176.752 177.049 177.104C176.585 177.456 176.001 177.632 175.297 177.632C174.801 177.632 174.369 177.552 174.001 177.392C173.641 177.232 173.337 177.008 173.089 176.72C172.841 176.432 172.653 176.088 172.525 175.688C172.405 175.288 172.337 174.852 172.321 174.38C172.321 173.908 172.393 173.476 172.537 173.084C172.681 172.692 172.881 172.352 173.137 172.064C173.401 171.776 173.709 171.552 174.061 171.392C174.421 171.232 174.813 171.152 175.237 171.152C175.789 171.152 176.245 171.268 176.605 171.5C176.973 171.724 177.265 172.012 177.481 172.364C177.705 172.716 177.857 173.1 177.937 173.516C178.025 173.932 178.061 174.328 178.045 174.704H173.401C173.393 174.976 173.425 175.236 173.497 175.484C173.569 175.724 173.685 175.94 173.845 176.132C174.005 176.316 174.209 176.464 174.457 176.576C174.705 176.688 174.997 176.744 175.333 176.744C175.765 176.744 176.117 176.644 176.389 176.444C176.669 176.244 176.853 175.94 176.941 175.532H177.949ZM179.066 171.296H180.026V172.604H180.05C180.298 172.1 180.602 171.728 180.962 171.488C181.322 171.248 181.778 171.136 182.33 171.152V172.232C181.922 172.232 181.574 172.288 181.286 172.4C180.998 172.512 180.766 172.676 180.59 172.892C180.414 173.108 180.286 173.372 180.206 173.684C180.126 173.988 180.086 174.34 180.086 174.74V177.5H179.066V171.296Z" fill="#404449"/>
<rect x="289.5" y="157.5" width="104" height="28" rx="14" fill="white"/>
<rect x="289.5" y="157.5" width="104" height="28" rx="14" stroke="#E7E9EE"/>
<path d="M301 170.073V172.933" stroke="#404449" stroke-width="0.75" stroke-linecap="round" stroke-linejoin="round"/>
<path d="M303 169.12V173.88" stroke="#404449" stroke-width="0.75" stroke-linecap="round" stroke-linejoin="round"/>
<path d="M305 168.167V174.833" stroke="#404449" stroke-width="0.75" stroke-linecap="round" stroke-linejoin="round"/>
<path d="M307 169.12V173.88" stroke="#404449" stroke-width="0.75" stroke-linecap="round" stroke-linejoin="round"/>
<path d="M309 170.073V172.933" stroke="#404449" stroke-width="0.75" stroke-linecap="round" stroke-linejoin="round"/>
<path d="M303 178.167H307C310.333 178.167 311.667 176.833 311.667 173.5V169.5C311.667 166.167 310.333 164.833 307 164.833H303C299.667 164.833 298.333 166.167 298.333 169.5V173.5C298.333 176.833 299.667 178.167 303 178.167Z" stroke="#404449" stroke-width="0.75" stroke-linecap="round" stroke-linejoin="round"/>
<path d="M319.936 166.932H321.076V174.54H325.612V175.5H319.936V166.932ZM330.744 171.804C330.728 171.564 330.672 171.336 330.576 171.12C330.488 170.904 330.364 170.72 330.204 170.568C330.052 170.408 329.868 170.284 329.652 170.196C329.444 170.1 329.212 170.052 328.956 170.052C328.692 170.052 328.452 170.1 328.236 170.196C328.028 170.284 327.848 170.408 327.696 170.568C327.544 170.728 327.424 170.916 327.336 171.132C327.248 171.34 327.196 171.564 327.18 171.804H330.744ZM331.728 173.532C331.592 174.228 331.292 174.752 330.828 175.104C330.364 175.456 329.78 175.632 329.076 175.632C328.58 175.632 328.148 175.552 327.78 175.392C327.42 175.232 327.116 175.008 326.868 174.72C326.62 174.432 326.432 174.088 326.304 173.688C326.184 173.288 326.116 172.852 326.1 172.38C326.1 171.908 326.172 171.476 326.316 171.084C326.46 170.692 326.66 170.352 326.916 170.064C327.18 169.776 327.488 169.552 327.84 169.392C328.2 169.232 328.592 169.152 329.016 169.152C329.568 169.152 330.024 169.268 330.384 169.5C330.752 169.724 331.044 170.012 331.26 170.364C331.484 170.716 331.636 171.1 331.716 171.516C331.804 171.932 331.84 172.328 331.824 172.704H327.18C327.172 172.976 327.204 173.236 327.276 173.484C327.348 173.724 327.464 173.94 327.624 174.132C327.784 174.316 327.988 174.464 328.236 174.576C328.484 174.688 328.776 174.744 329.112 174.744C329.544 174.744 329.896 174.644 330.168 174.444C330.448 174.244 330.632 173.94 330.72 173.532H331.728ZM332.881 169.296H333.841V170.28H333.865C334.289 169.528 334.961 169.152 335.881 169.152C336.289 169.152 336.629 169.208 336.901 169.32C337.173 169.432 337.393 169.588 337.561 169.788C337.729 169.988 337.845 170.228 337.909 170.508C337.981 170.78 338.017 171.084 338.017 171.42V175.5H336.997V171.3C336.997 170.916 336.885 170.612 336.661 170.388C336.437 170.164 336.129 170.052 335.737 170.052C335.425 170.052 335.153 170.1 334.921 170.196C334.697 170.292 334.509 170.428 334.357 170.604C334.205 170.78 334.089 170.988 334.009 171.228C333.937 171.46 333.901 171.716 333.901 171.996V175.5H332.881V169.296ZM340.293 172.452C340.293 172.74 340.329 173.024 340.401 173.304C340.481 173.576 340.597 173.82 340.749 174.036C340.909 174.252 341.109 174.424 341.349 174.552C341.597 174.68 341.885 174.744 342.213 174.744C342.557 174.744 342.849 174.676 343.089 174.54C343.329 174.404 343.525 174.228 343.677 174.012C343.829 173.788 343.937 173.536 344.001 173.256C344.073 172.976 344.109 172.692 344.109 172.404C344.109 172.1 344.073 171.808 344.001 171.528C343.929 171.24 343.813 170.988 343.653 170.772C343.501 170.556 343.301 170.384 343.053 170.256C342.805 170.12 342.505 170.052 342.153 170.052C341.809 170.052 341.517 170.12 341.277 170.256C341.037 170.392 340.845 170.572 340.701 170.796C340.557 171.02 340.453 171.276 340.389 171.564C340.325 171.852 340.293 172.148 340.293 172.452ZM345.093 175.5H344.073V174.66H344.049C343.881 175.004 343.617 175.252 343.257 175.404C342.897 175.556 342.501 175.632 342.069 175.632C341.589 175.632 341.169 175.544 340.809 175.368C340.457 175.192 340.161 174.956 339.921 174.66C339.689 174.364 339.513 174.02 339.393 173.628C339.273 173.236 339.213 172.82 339.213 172.38C339.213 171.94 339.269 171.524 339.381 171.132C339.501 170.74 339.677 170.4 339.909 170.112C340.149 169.816 340.445 169.584 340.797 169.416C341.157 169.24 341.573 169.152 342.045 169.152C342.205 169.152 342.377 169.168 342.561 169.2C342.745 169.232 342.929 169.288 343.113 169.368C343.297 169.44 343.469 169.54 343.629 169.668C343.797 169.788 343.937 169.94 344.049 170.124H344.073V166.932H345.093V175.5ZM352.798 175.5H351.706L349.402 169.296H350.542L352.282 174.468H352.306L353.998 169.296H355.066L352.798 175.5ZM356.746 172.404C356.746 172.78 356.794 173.116 356.89 173.412C356.994 173.7 357.134 173.944 357.31 174.144C357.486 174.336 357.69 174.484 357.922 174.588C358.162 174.692 358.414 174.744 358.678 174.744C358.942 174.744 359.19 174.692 359.422 174.588C359.662 174.484 359.87 174.336 360.046 174.144C360.222 173.944 360.358 173.7 360.454 173.412C360.558 173.116 360.61 172.78 360.61 172.404C360.61 172.028 360.558 171.696 360.454 171.408C360.358 171.112 360.222 170.864 360.046 170.664C359.87 170.464 359.662 170.312 359.422 170.208C359.19 170.104 358.942 170.052 358.678 170.052C358.414 170.052 358.162 170.104 357.922 170.208C357.69 170.312 357.486 170.464 357.31 170.664C357.134 170.864 356.994 171.112 356.89 171.408C356.794 171.696 356.746 172.028 356.746 172.404ZM355.666 172.404C355.666 171.948 355.73 171.524 355.858 171.132C355.986 170.732 356.178 170.388 356.434 170.1C356.69 169.804 357.006 169.572 357.382 169.404C357.758 169.236 358.19 169.152 358.678 169.152C359.174 169.152 359.606 169.236 359.974 169.404C360.35 169.572 360.666 169.804 360.922 170.1C361.178 170.388 361.37 170.732 361.498 171.132C361.626 171.524 361.69 171.948 361.69 172.404C361.69 172.86 361.626 173.284 361.498 173.676C361.37 174.068 361.178 174.412 360.922 174.708C360.666 174.996 360.35 175.224 359.974 175.392C359.606 175.552 359.174 175.632 358.678 175.632C358.19 175.632 357.758 175.552 357.382 175.392C357.006 175.224 356.69 174.996 356.434 174.708C356.178 174.412 355.986 174.068 355.858 173.676C355.73 173.284 355.666 172.86 355.666 172.404ZM363.973 168.18H362.953V166.932H363.973V168.18ZM362.953 169.296H363.973V175.5H362.953V169.296ZM369.765 171.288C369.685 170.896 369.517 170.592 369.261 170.376C369.005 170.16 368.661 170.052 368.229 170.052C367.861 170.052 367.553 170.12 367.305 170.256C367.057 170.392 366.857 170.572 366.705 170.796C366.561 171.02 366.457 171.28 366.393 171.576C366.329 171.864 366.297 172.164 366.297 172.476C366.297 172.764 366.329 173.044 366.393 173.316C366.465 173.588 366.573 173.832 366.717 174.048C366.861 174.256 367.049 174.424 367.281 174.552C367.513 174.68 367.789 174.744 368.109 174.744C368.613 174.744 369.005 174.612 369.285 174.348C369.573 174.084 369.749 173.712 369.813 173.232H370.857C370.745 174 370.457 174.592 369.993 175.008C369.537 175.424 368.913 175.632 368.121 175.632C367.649 175.632 367.229 175.556 366.861 175.404C366.501 175.252 366.197 175.036 365.949 174.756C365.709 174.476 365.525 174.144 365.397 173.76C365.277 173.368 365.217 172.94 365.217 172.476C365.217 172.012 365.277 171.58 365.397 171.18C365.517 170.772 365.697 170.42 365.937 170.124C366.185 169.82 366.493 169.584 366.861 169.416C367.229 169.24 367.657 169.152 368.145 169.152C368.497 169.152 368.825 169.196 369.129 169.284C369.441 169.364 369.713 169.492 369.945 169.668C370.185 169.844 370.381 170.068 370.533 170.34C370.685 170.604 370.781 170.92 370.821 171.288H369.765ZM376.306 171.804C376.29 171.564 376.234 171.336 376.138 171.12C376.05 170.904 375.926 170.72 375.766 170.568C375.614 170.408 375.43 170.284 375.214 170.196C375.006 170.1 374.774 170.052 374.518 170.052C374.254 170.052 374.014 170.1 373.798 170.196C373.59 170.284 373.41 170.408 373.258 170.568C373.106 170.728 372.986 170.916 372.898 171.132C372.81 171.34 372.758 171.564 372.742 171.804H376.306ZM377.29 173.532C377.154 174.228 376.854 174.752 376.39 175.104C375.926 175.456 375.342 175.632 374.638 175.632C374.142 175.632 373.71 175.552 373.342 175.392C372.982 175.232 372.678 175.008 372.43 174.72C372.182 174.432 371.994 174.088 371.866 173.688C371.746 173.288 371.678 172.852 371.662 172.38C371.662 171.908 371.734 171.476 371.878 171.084C372.022 170.692 372.222 170.352 372.478 170.064C372.742 169.776 373.05 169.552 373.402 169.392C373.762 169.232 374.154 169.152 374.578 169.152C375.13 169.152 375.586 169.268 375.946 169.5C376.314 169.724 376.606 170.012 376.822 170.364C377.046 170.716 377.198 171.1 377.278 171.516C377.366 171.932 377.402 172.328 377.386 172.704H372.742C372.734 172.976 372.766 173.236 372.838 173.484C372.91 173.724 373.026 173.94 373.186 174.132C373.346 174.316 373.55 174.464 373.798 174.576C374.046 174.688 374.338 174.744 374.674 174.744C375.106 174.744 375.458 174.644 375.73 174.444C376.01 174.244 376.194 173.94 376.282 173.532H377.29Z" fill="#404449"/>
</g>
<g filter="url(#filter1_d_121_176)">
<rect x="210" y="40" width="194" height="36" rx="7" fill="white"/>
<path d="M226.5 68.4H246.5V48.4H226.5V68.4Z" fill="#404449"/>
<path d="M261.738 63.5H255.046C255.055 62.688 255.251 61.9787 255.634 61.372C256.017 60.7653 256.539 60.238 257.202 59.79C257.519 59.5567 257.851 59.3327 258.196 59.118C258.541 58.894 258.859 58.656 259.148 58.404C259.437 58.152 259.675 57.8813 259.862 57.592C260.049 57.2933 260.147 56.9527 260.156 56.57C260.156 56.3927 260.133 56.206 260.086 56.01C260.049 55.8047 259.969 55.618 259.848 55.45C259.727 55.2727 259.559 55.128 259.344 55.016C259.129 54.8947 258.849 54.834 258.504 54.834C258.187 54.834 257.921 54.8993 257.706 55.03C257.501 55.1513 257.333 55.324 257.202 55.548C257.081 55.7627 256.987 56.0193 256.922 56.318C256.866 56.6167 256.833 56.9387 256.824 57.284H255.228C255.228 56.7427 255.298 56.2433 255.438 55.786C255.587 55.3193 255.807 54.918 256.096 54.582C256.385 54.246 256.735 53.9847 257.146 53.798C257.566 53.602 258.051 53.504 258.602 53.504C259.199 53.504 259.699 53.602 260.1 53.798C260.501 53.994 260.823 54.2413 261.066 54.54C261.318 54.8387 261.495 55.1653 261.598 55.52C261.701 55.8653 261.752 56.1967 261.752 56.514C261.752 56.906 261.691 57.2607 261.57 57.578C261.449 57.8953 261.285 58.1893 261.08 58.46C260.875 58.7213 260.641 58.964 260.38 59.188C260.119 59.412 259.848 59.622 259.568 59.818C259.288 60.014 259.008 60.2007 258.728 60.378C258.448 60.5553 258.187 60.7327 257.944 60.91C257.711 61.0873 257.505 61.274 257.328 61.47C257.151 61.6567 257.029 61.8573 256.964 62.072H261.738V63.5ZM266.171 53.504C266.871 53.504 267.441 53.6673 267.879 53.994C268.327 54.3113 268.673 54.722 268.915 55.226C269.167 55.7207 269.335 56.2667 269.419 56.864C269.513 57.4613 269.559 58.04 269.559 58.6C269.559 59.16 269.513 59.7387 269.419 60.336C269.335 60.9333 269.167 61.484 268.915 61.988C268.673 62.4827 268.327 62.8933 267.879 63.22C267.441 63.5373 266.871 63.696 266.171 63.696C265.471 63.696 264.897 63.5373 264.449 63.22C264.011 62.8933 263.665 62.4827 263.413 61.988C263.171 61.484 263.003 60.9333 262.909 60.336C262.825 59.7387 262.783 59.16 262.783 58.6C262.783 58.04 262.825 57.4613 262.909 56.864C263.003 56.2667 263.171 55.7207 263.413 55.226C263.665 54.722 264.011 54.3113 264.449 53.994C264.897 53.6673 265.471 53.504 266.171 53.504ZM266.171 62.366C266.517 62.366 266.806 62.268 267.039 62.072C267.273 61.8667 267.455 61.596 267.585 61.26C267.725 60.9147 267.823 60.5133 267.879 60.056C267.935 59.5987 267.963 59.1133 267.963 58.6C267.963 58.0867 267.935 57.606 267.879 57.158C267.823 56.7007 267.725 56.2993 267.585 55.954C267.455 55.6087 267.273 55.338 267.039 55.142C266.806 54.9367 266.517 54.834 266.171 54.834C265.817 54.834 265.523 54.9367 265.289 55.142C265.065 55.338 264.883 55.6087 264.743 55.954C264.613 56.2993 264.519 56.7007 264.463 57.158C264.407 57.606 264.379 58.0867 264.379 58.6C264.379 59.1133 264.407 59.5987 264.463 60.056C264.519 60.5133 264.613 60.9147 264.743 61.26C264.883 61.596 265.065 61.8667 265.289 62.072C265.523 62.268 265.817 62.366 266.171 62.366Z" fill="#404449"/>
<path d="M276.808 63.5H275.512L272.5 54.932H273.724L276.172 62.36H276.196L278.668 54.932H279.856L276.808 63.5ZM280.692 60.404C280.692 60.78 280.74 61.116 280.836 61.412C280.94 61.7 281.08 61.944 281.256 62.144C281.432 62.336 281.636 62.484 281.868 62.588C282.108 62.692 282.36 62.744 282.624 62.744C282.888 62.744 283.136 62.692 283.368 62.588C283.608 62.484 283.816 62.336 283.992 62.144C284.168 61.944 284.304 61.7 284.4 61.412C284.504 61.116 284.556 60.78 284.556 60.404C284.556 60.028 284.504 59.696 284.4 59.408C284.304 59.112 284.168 58.864 283.992 58.664C283.816 58.464 283.608 58.312 283.368 58.208C283.136 58.104 282.888 58.052 282.624 58.052C282.36 58.052 282.108 58.104 281.868 58.208C281.636 58.312 281.432 58.464 281.256 58.664C281.08 58.864 280.94 59.112 280.836 59.408C280.74 59.696 280.692 60.028 280.692 60.404ZM279.612 60.404C279.612 59.948 279.676 59.524 279.804 59.132C279.932 58.732 280.124 58.388 280.38 58.1C280.636 57.804 280.952 57.572 281.328 57.404C281.704 57.236 282.136 57.152 282.624 57.152C283.12 57.152 283.552 57.236 283.92 57.404C284.296 57.572 284.612 57.804 284.868 58.1C285.124 58.388 285.316 58.732 285.444 59.132C285.572 59.524 285.636 59.948 285.636 60.404C285.636 60.86 285.572 61.284 285.444 61.676C285.316 62.068 285.124 62.412 284.868 62.708C284.612 62.996 284.296 63.224 283.92 63.392C283.552 63.552 283.12 63.632 282.624 63.632C282.136 63.632 281.704 63.552 281.328 63.392C280.952 63.224 280.636 62.996 280.38 62.708C280.124 62.412 279.932 62.068 279.804 61.676C279.676 61.284 279.612 60.86 279.612 60.404ZM287.918 56.18H286.898V54.932H287.918V56.18ZM286.898 57.296H287.918V63.5H286.898V57.296ZM293.71 59.288C293.63 58.896 293.462 58.592 293.206 58.376C292.95 58.16 292.606 58.052 292.174 58.052C291.806 58.052 291.498 58.12 291.25 58.256C291.002 58.392 290.802 58.572 290.65 58.796C290.506 59.02 290.402 59.28 290.338 59.576C290.274 59.864 290.242 60.164 290.242 60.476C290.242 60.764 290.274 61.044 290.338 61.316C290.41 61.588 290.518 61.832 290.662 62.048C290.806 62.256 290.994 62.424 291.226 62.552C291.458 62.68 291.734 62.744 292.054 62.744C292.558 62.744 292.95 62.612 293.23 62.348C293.518 62.084 293.694 61.712 293.758 61.232H294.802C294.69 62 294.402 62.592 293.938 63.008C293.482 63.424 292.858 63.632 292.066 63.632C291.594 63.632 291.174 63.556 290.806 63.404C290.446 63.252 290.142 63.036 289.894 62.756C289.654 62.476 289.47 62.144 289.342 61.76C289.222 61.368 289.162 60.94 289.162 60.476C289.162 60.012 289.222 59.58 289.342 59.18C289.462 58.772 289.642 58.42 289.882 58.124C290.13 57.82 290.438 57.584 290.806 57.416C291.174 57.24 291.602 57.152 292.09 57.152C292.442 57.152 292.77 57.196 293.074 57.284C293.386 57.364 293.658 57.492 293.89 57.668C294.13 57.844 294.326 58.068 294.478 58.34C294.63 58.604 294.726 58.92 294.766 59.288H293.71ZM300.252 59.804C300.236 59.564 300.18 59.336 300.084 59.12C299.996 58.904 299.872 58.72 299.712 58.568C299.56 58.408 299.376 58.284 299.16 58.196C298.952 58.1 298.72 58.052 298.464 58.052C298.2 58.052 297.96 58.1 297.744 58.196C297.536 58.284 297.356 58.408 297.204 58.568C297.052 58.728 296.932 58.916 296.844 59.132C296.756 59.34 296.704 59.564 296.688 59.804H300.252ZM301.236 61.532C301.1 62.228 300.8 62.752 300.336 63.104C299.872 63.456 299.288 63.632 298.584 63.632C298.088 63.632 297.656 63.552 297.288 63.392C296.928 63.232 296.624 63.008 296.376 62.72C296.128 62.432 295.94 62.088 295.812 61.688C295.692 61.288 295.624 60.852 295.608 60.38C295.608 59.908 295.68 59.476 295.824 59.084C295.968 58.692 296.168 58.352 296.424 58.064C296.688 57.776 296.996 57.552 297.348 57.392C297.708 57.232 298.1 57.152 298.524 57.152C299.076 57.152 299.532 57.268 299.892 57.5C300.26 57.724 300.552 58.012 300.768 58.364C300.992 58.716 301.144 59.1 301.224 59.516C301.312 59.932 301.348 60.328 301.332 60.704H296.688C296.68 60.976 296.712 61.236 296.784 61.484C296.856 61.724 296.972 61.94 297.132 62.132C297.292 62.316 297.496 62.464 297.744 62.576C297.992 62.688 298.284 62.744 298.62 62.744C299.052 62.744 299.404 62.644 299.676 62.444C299.956 62.244 300.14 61.94 300.228 61.532H301.236ZM305.765 57.296H306.785V58.136H306.809C306.977 57.792 307.241 57.544 307.601 57.392C307.961 57.232 308.357 57.152 308.789 57.152C309.269 57.152 309.685 57.24 310.037 57.416C310.397 57.592 310.693 57.832 310.925 58.136C311.165 58.432 311.345 58.776 311.465 59.168C311.585 59.56 311.645 59.976 311.645 60.416C311.645 60.856 311.585 61.272 311.465 61.664C311.353 62.056 311.177 62.4 310.937 62.696C310.705 62.984 310.409 63.212 310.049 63.38C309.697 63.548 309.285 63.632 308.813 63.632C308.661 63.632 308.489 63.616 308.297 63.584C308.113 63.552 307.929 63.5 307.745 63.428C307.561 63.356 307.385 63.26 307.217 63.14C307.057 63.012 306.921 62.856 306.809 62.672H306.785V65.864H305.765V57.296ZM310.565 60.344C310.565 60.056 310.525 59.776 310.445 59.504C310.373 59.224 310.257 58.976 310.097 58.76C309.945 58.544 309.745 58.372 309.497 58.244C309.257 58.116 308.973 58.052 308.645 58.052C308.301 58.052 308.009 58.12 307.769 58.256C307.529 58.392 307.333 58.572 307.181 58.796C307.029 59.012 306.917 59.26 306.845 59.54C306.781 59.82 306.749 60.104 306.749 60.392C306.749 60.696 306.785 60.992 306.857 61.28C306.929 61.56 307.041 61.808 307.193 62.024C307.353 62.24 307.557 62.416 307.805 62.552C308.053 62.68 308.353 62.744 308.705 62.744C309.057 62.744 309.349 62.676 309.581 62.54C309.821 62.404 310.013 62.224 310.157 62C310.301 61.776 310.405 61.52 310.469 61.232C310.533 60.944 310.565 60.648 310.565 60.344ZM313.586 60.404C313.586 60.78 313.634 61.116 313.73 61.412C313.834 61.7 313.974 61.944 314.15 62.144C314.326 62.336 314.53 62.484 314.762 62.588C315.002 62.692 315.254 62.744 315.518 62.744C315.782 62.744 316.03 62.692 316.262 62.588C316.502 62.484 316.71 62.336 316.886 62.144C317.062 61.944 317.198 61.7 317.294 61.412C317.398 61.116 317.45 60.78 317.45 60.404C317.45 60.028 317.398 59.696 317.294 59.408C317.198 59.112 317.062 58.864 316.886 58.664C316.71 58.464 316.502 58.312 316.262 58.208C316.03 58.104 315.782 58.052 315.518 58.052C315.254 58.052 315.002 58.104 314.762 58.208C314.53 58.312 314.326 58.464 314.15 58.664C313.974 58.864 313.834 59.112 313.73 59.408C313.634 59.696 313.586 60.028 313.586 60.404ZM312.506 60.404C312.506 59.948 312.57 59.524 312.698 59.132C312.826 58.732 313.018 58.388 313.274 58.1C313.53 57.804 313.846 57.572 314.222 57.404C314.598 57.236 315.03 57.152 315.518 57.152C316.014 57.152 316.446 57.236 316.814 57.404C317.19 57.572 317.506 57.804 317.762 58.1C318.018 58.388 318.21 58.732 318.338 59.132C318.466 59.524 318.53 59.948 318.53 60.404C318.53 60.86 318.466 61.284 318.338 61.676C318.21 62.068 318.018 62.412 317.762 62.708C317.506 62.996 317.19 63.224 316.814 63.392C316.446 63.552 316.014 63.632 315.518 63.632C315.03 63.632 314.598 63.552 314.222 63.392C313.846 63.224 313.53 62.996 313.274 62.708C313.018 62.412 312.826 62.068 312.698 61.676C312.57 61.284 312.506 60.86 312.506 60.404ZM325.877 63.5H324.797L323.537 58.568H323.513L322.265 63.5H321.161L319.169 57.296H320.297L321.701 62.372H321.725L322.973 57.296H324.089L325.385 62.372H325.409L326.801 57.296H327.857L325.877 63.5ZM333.135 59.804C333.119 59.564 333.063 59.336 332.967 59.12C332.879 58.904 332.755 58.72 332.595 58.568C332.443 58.408 332.259 58.284 332.043 58.196C331.835 58.1 331.603 58.052 331.347 58.052C331.083 58.052 330.843 58.1 330.627 58.196C330.419 58.284 330.239 58.408 330.087 58.568C329.935 58.728 329.815 58.916 329.727 59.132C329.639 59.34 329.587 59.564 329.571 59.804H333.135ZM334.119 61.532C333.983 62.228 333.683 62.752 333.219 63.104C332.755 63.456 332.171 63.632 331.467 63.632C330.971 63.632 330.539 63.552 330.171 63.392C329.811 63.232 329.507 63.008 329.259 62.72C329.011 62.432 328.823 62.088 328.695 61.688C328.575 61.288 328.507 60.852 328.491 60.38C328.491 59.908 328.563 59.476 328.707 59.084C328.851 58.692 329.051 58.352 329.307 58.064C329.571 57.776 329.879 57.552 330.231 57.392C330.591 57.232 330.983 57.152 331.407 57.152C331.959 57.152 332.415 57.268 332.775 57.5C333.143 57.724 333.435 58.012 333.651 58.364C333.875 58.716 334.027 59.1 334.107 59.516C334.195 59.932 334.231 60.328 334.215 60.704H329.571C329.563 60.976 329.595 61.236 329.667 61.484C329.739 61.724 329.855 61.94 330.015 62.132C330.175 62.316 330.379 62.464 330.627 62.576C330.875 62.688 331.167 62.744 331.503 62.744C331.935 62.744 332.287 62.644 332.559 62.444C332.839 62.244 333.023 61.94 333.111 61.532H334.119ZM335.236 57.296H336.196V58.604H336.22C336.468 58.1 336.772 57.728 337.132 57.488C337.492 57.248 337.948 57.136 338.5 57.152V58.232C338.092 58.232 337.744 58.288 337.456 58.4C337.168 58.512 336.936 58.676 336.76 58.892C336.584 59.108 336.456 59.372 336.376 59.684C336.296 59.988 336.256 60.34 336.256 60.74V63.5H335.236V57.296ZM342.572 57.296H343.532V58.604H343.556C343.804 58.1 344.108 57.728 344.468 57.488C344.828 57.248 345.284 57.136 345.836 57.152V58.232C345.428 58.232 345.08 58.288 344.792 58.4C344.504 58.512 344.272 58.676 344.096 58.892C343.92 59.108 343.792 59.372 343.712 59.684C343.632 59.988 343.592 60.34 343.592 60.74V63.5H342.572V57.296ZM350.701 59.804C350.685 59.564 350.629 59.336 350.533 59.12C350.445 58.904 350.321 58.72 350.161 58.568C350.009 58.408 349.825 58.284 349.609 58.196C349.401 58.1 349.169 58.052 348.913 58.052C348.649 58.052 348.409 58.1 348.193 58.196C347.985 58.284 347.805 58.408 347.653 58.568C347.501 58.728 347.381 58.916 347.293 59.132C347.205 59.34 347.153 59.564 347.137 59.804H350.701ZM351.685 61.532C351.549 62.228 351.249 62.752 350.785 63.104C350.321 63.456 349.737 63.632 349.033 63.632C348.537 63.632 348.105 63.552 347.737 63.392C347.377 63.232 347.073 63.008 346.825 62.72C346.577 62.432 346.389 62.088 346.261 61.688C346.141 61.288 346.073 60.852 346.057 60.38C346.057 59.908 346.129 59.476 346.273 59.084C346.417 58.692 346.617 58.352 346.873 58.064C347.137 57.776 347.445 57.552 347.797 57.392C348.157 57.232 348.549 57.152 348.973 57.152C349.525 57.152 349.981 57.268 350.341 57.5C350.709 57.724 351.001 58.012 351.217 58.364C351.441 58.716 351.593 59.1 351.673 59.516C351.761 59.932 351.797 60.328 351.781 60.704H347.137C347.129 60.976 347.161 61.236 347.233 61.484C347.305 61.724 347.421 61.94 347.581 62.132C347.741 62.316 347.945 62.464 348.193 62.576C348.441 62.688 348.733 62.744 349.069 62.744C349.501 62.744 349.853 62.644 350.125 62.444C350.405 62.244 350.589 61.94 350.677 61.532H351.685ZM357.05 59.288C356.97 58.896 356.802 58.592 356.546 58.376C356.29 58.16 355.946 58.052 355.514 58.052C355.146 58.052 354.838 58.12 354.59 58.256C354.342 58.392 354.142 58.572 353.99 58.796C353.846 59.02 353.742 59.28 353.678 59.576C353.614 59.864 353.582 60.164 353.582 60.476C353.582 60.764 353.614 61.044 353.678 61.316C353.75 61.588 353.858 61.832 354.002 62.048C354.146 62.256 354.334 62.424 354.566 62.552C354.798 62.68 355.074 62.744 355.394 62.744C355.898 62.744 356.29 62.612 356.57 62.348C356.858 62.084 357.034 61.712 357.098 61.232H358.142C358.03 62 357.742 62.592 357.278 63.008C356.822 63.424 356.198 63.632 355.406 63.632C354.934 63.632 354.514 63.556 354.146 63.404C353.786 63.252 353.482 63.036 353.234 62.756C352.994 62.476 352.81 62.144 352.682 61.76C352.562 61.368 352.502 60.94 352.502 60.476C352.502 60.012 352.562 59.58 352.682 59.18C352.802 58.772 352.982 58.42 353.222 58.124C353.47 57.82 353.778 57.584 354.146 57.416C354.514 57.24 354.942 57.152 355.43 57.152C355.782 57.152 356.11 57.196 356.414 57.284C356.726 57.364 356.998 57.492 357.23 57.668C357.47 57.844 357.666 58.068 357.818 58.34C357.97 58.604 358.066 58.92 358.106 59.288H357.05ZM363.592 59.804C363.576 59.564 363.52 59.336 363.424 59.12C363.336 58.904 363.212 58.72 363.052 58.568C362.9 58.408 362.716 58.284 362.5 58.196C362.292 58.1 362.06 58.052 361.804 58.052C361.54 58.052 361.3 58.1 361.084 58.196C360.876 58.284 360.696 58.408 360.544 58.568C360.392 58.728 360.272 58.916 360.184 59.132C360.096 59.34 360.044 59.564 360.028 59.804H363.592ZM364.576 61.532C364.44 62.228 364.14 62.752 363.676 63.104C363.212 63.456 362.628 63.632 361.924 63.632C361.428 63.632 360.996 63.552 360.628 63.392C360.268 63.232 359.964 63.008 359.716 62.72C359.468 62.432 359.28 62.088 359.152 61.688C359.032 61.288 358.964 60.852 358.948 60.38C358.948 59.908 359.02 59.476 359.164 59.084C359.308 58.692 359.508 58.352 359.764 58.064C360.028 57.776 360.336 57.552 360.688 57.392C361.048 57.232 361.44 57.152 361.864 57.152C362.416 57.152 362.872 57.268 363.232 57.5C363.6 57.724 363.892 58.012 364.108 58.364C364.332 58.716 364.484 59.1 364.564 59.516C364.652 59.932 364.688 60.328 364.672 60.704H360.028C360.02 60.976 360.052 61.236 360.124 61.484C360.196 61.724 360.312 61.94 360.472 62.132C360.632 62.316 360.836 62.464 361.084 62.576C361.332 62.688 361.624 62.744 361.96 62.744C362.392 62.744 362.744 62.644 363.016 62.444C363.296 62.244 363.48 61.94 363.568 61.532H364.576ZM366.809 56.18H365.789V54.932H366.809V56.18ZM365.789 57.296H366.809V63.5H365.789V57.296ZM371.185 63.5H370.093L367.789 57.296H368.929L370.669 62.468H370.693L372.385 57.296H373.453L371.185 63.5ZM378.697 59.804C378.681 59.564 378.625 59.336 378.529 59.12C378.441 58.904 378.317 58.72 378.157 58.568C378.005 58.408 377.821 58.284 377.605 58.196C377.397 58.1 377.165 58.052 376.909 58.052C376.645 58.052 376.405 58.1 376.189 58.196C375.981 58.284 375.801 58.408 375.649 58.568C375.497 58.728 375.377 58.916 375.289 59.132C375.201 59.34 375.149 59.564 375.133 59.804H378.697ZM379.681 61.532C379.545 62.228 379.245 62.752 378.781 63.104C378.317 63.456 377.733 63.632 377.029 63.632C376.533 63.632 376.101 63.552 375.733 63.392C375.373 63.232 375.069 63.008 374.821 62.72C374.573 62.432 374.385 62.088 374.257 61.688C374.137 61.288 374.069 60.852 374.053 60.38C374.053 59.908 374.125 59.476 374.269 59.084C374.413 58.692 374.613 58.352 374.869 58.064C375.133 57.776 375.441 57.552 375.793 57.392C376.153 57.232 376.545 57.152 376.969 57.152C377.521 57.152 377.977 57.268 378.337 57.5C378.705 57.724 378.997 58.012 379.213 58.364C379.437 58.716 379.589 59.1 379.669 59.516C379.757 59.932 379.793 60.328 379.777 60.704H375.133C375.125 60.976 375.157 61.236 375.229 61.484C375.301 61.724 375.417 61.94 375.577 62.132C375.737 62.316 375.941 62.464 376.189 62.576C376.437 62.688 376.729 62.744 377.065 62.744C377.497 62.744 377.849 62.644 378.121 62.444C378.401 62.244 378.585 61.94 378.673 61.532H379.681ZM381.578 60.452C381.578 60.74 381.614 61.024 381.686 61.304C381.766 61.576 381.882 61.82 382.034 62.036C382.194 62.252 382.394 62.424 382.634 62.552C382.882 62.68 383.17 62.744 383.498 62.744C383.842 62.744 384.134 62.676 384.374 62.54C384.614 62.404 384.81 62.228 384.962 62.012C385.114 61.788 385.222 61.536 385.286 61.256C385.358 60.976 385.394 60.692 385.394 60.404C385.394 60.1 385.358 59.808 385.286 59.528C385.214 59.24 385.098 58.988 384.938 58.772C384.786 58.556 384.586 58.384 384.338 58.256C384.09 58.12 383.79 58.052 383.438 58.052C383.094 58.052 382.802 58.12 382.562 58.256C382.322 58.392 382.13 58.572 381.986 58.796C381.842 59.02 381.738 59.276 381.674 59.564C381.61 59.852 381.578 60.148 381.578 60.452ZM386.378 63.5H385.358V62.66H385.334C385.166 63.004 384.902 63.252 384.542 63.404C384.182 63.556 383.786 63.632 383.354 63.632C382.874 63.632 382.454 63.544 382.094 63.368C381.742 63.192 381.446 62.956 381.206 62.66C380.974 62.364 380.798 62.02 380.678 61.628C380.558 61.236 380.498 60.82 380.498 60.38C380.498 59.94 380.554 59.524 380.666 59.132C380.786 58.74 380.962 58.4 381.194 58.112C381.434 57.816 381.73 57.584 382.082 57.416C382.442 57.24 382.858 57.152 383.33 57.152C383.49 57.152 383.662 57.168 383.846 57.2C384.03 57.232 384.214 57.288 384.398 57.368C384.582 57.44 384.754 57.54 384.914 57.668C385.082 57.788 385.222 57.94 385.334 58.124H385.358V54.932H386.378V63.5Z" fill="#404449"/>
</g>
<defs>
<filter id="filter0_d_121_176" x="0" y="29" width="454" height="221" filterUnits="userSpaceOnUse" color-interpolation-filters="sRGB">
<feFlood flood-opacity="0" result="BackgroundImageFix"/>
<feColorMatrix in="SourceAlpha" type="matrix" values="0 0 0 0 0 0 0 0 0 0 0 0 0 0 0 0 0 0 127 0" result="hardAlpha"/>
<feOffset dy="4"/>
<feGaussianBlur stdDeviation="22"/>
<feComposite in2="hardAlpha" operator="out"/>
<feColorMatrix type="matrix" values="0 0 0 0 0 0 0 0 0 0 0 0 0 0 0 0 0 0 0.1 0"/>
<feBlend mode="normal" in2="BackgroundImageFix" result="effect1_dropShadow_121_176"/>
<feBlend mode="normal" in="SourceGraphic" in2="effect1_dropShadow_121_176" result="shape"/>
</filter>
<filter id="filter1_d_121_176" x="166" y="0" width="282" height="124" filterUnits="userSpaceOnUse" color-interpolation-filters="sRGB">
<feFlood flood-opacity="0" result="BackgroundImageFix"/>
<feColorMatrix in="SourceAlpha" type="matrix" values="0 0 0 0 0 0 0 0 0 0 0 0 0 0 0 0 0 0 127 0" result="hardAlpha"/>
<feOffset dy="4"/>
<feGaussianBlur stdDeviation="22"/>
<feComposite in2="hardAlpha" operator="out"/>
<feColorMatrix type="matrix" values="0 0 0 0 0 0 0 0 0 0 0 0 0 0 0 0 0 0 0.1 0"/>
<feBlend mode="normal" in2="BackgroundImageFix" result="effect1_dropShadow_121_176"/>
<feBlend mode="normal" in="SourceGraphic" in2="effect1_dropShadow_121_176" result="shape"/>
</filter>
<clipPath id="clip0_121_176">
<rect width="29" height="29" fill="white" transform="translate(60 157)"/>
</clipPath>
</defs>
</svg>
