<svg width="334" height="200" viewBox="0 0 334 200" fill="none" xmlns="http://www.w3.org/2000/svg">
<path d="M-71.224 102.606C-99.8086 -0.976012 6.0797 -11.5194 82.496 19.7569C127.081 35.8419 156.361 -14.1812 211.594 5.78239C266.827 25.746 200.614 88.6314 285.127 120.906C369.639 153.18 328.381 297.584 254.516 299.247C180.65 300.911 200.947 325.2 127.081 380.765C53.216 436.331 -71.2238 359.138 -40.2802 277.62C-9.33668 196.102 -40.2806 214.735 -71.224 102.606Z" stroke="white" stroke-opacity="0.1" stroke-width="1.99636"/>
<path d="M87.7517 183.218C84.4536 173.352 99.9016 157.437 112.323 164.229C123.698 170.449 135.281 166.254 142.934 169.027C163.081 176.327 155.67 180.191 164.676 188.861C175.636 199.411 180.865 227.038 155.67 227.038C134.949 227.038 141.149 237.102 125.632 241.561C110.116 246.021 92.5192 238.43 92.5192 218.445C92.5192 210.94 93.2448 199.649 87.7517 183.218Z" stroke="white" stroke-opacity="0.1" stroke-width="1.99636"/>
<path d="M-56.7736 109.431C-83.0595 14.3688 14.607 3.33706 85.2055 32.3876C126.772 47.5757 154.443 1.71879 205.35 20.1196C257.393 38.932 196.526 96.4518 274.175 126.58C352.001 156.88 314.968 290.667 245.528 292.18C176.494 293.692 195.508 316.688 126.948 367.607C58.3867 418.527 -56.3401 347.661 -28.2096 271.737C-0.0790482 196.948 -28.1439 212.86 -56.7736 109.431Z" stroke="white" stroke-opacity="0.1" stroke-width="1.99636"/>
<path d="M-42.3233 116.256C-66.3104 29.7139 23.1343 18.1938 87.9151 45.0185C126.462 59.3098 152.525 17.6191 199.106 34.4571C247.96 52.1182 192.439 104.272 263.223 132.255C334.362 160.58 301.556 283.751 236.54 285.112C172.337 286.473 190.07 308.176 126.814 354.449C63.5574 400.723 -41.4563 336.185 -16.1389 265.855C9.1786 197.794 -16.0072 210.986 -42.3233 116.256Z" stroke="white" stroke-opacity="0.1" stroke-width="1.99636"/>
<path d="M-27.8728 123.082C-49.5611 45.0594 31.6617 33.0509 90.6249 57.6497C126.153 71.0443 150.606 33.5197 192.863 48.795C238.526 65.3049 188.351 112.094 252.271 137.93C316.723 164.28 288.144 276.835 227.552 278.045C168.18 279.255 184.632 299.665 126.68 341.292C68.7283 382.919 -26.5724 324.709 -4.06801 259.973C18.4364 198.64 -3.87035 209.112 -27.8728 123.082Z" stroke="white" stroke-opacity="0.1" stroke-width="1.99636"/>
<path d="M-13.4222 129.909C-32.8118 60.4054 40.1892 47.9085 93.3347 70.2815C125.844 82.7792 148.688 49.4209 186.619 63.1333C229.093 78.492 184.263 119.915 241.319 143.606C299.085 167.981 274.731 269.92 218.564 270.979C164.024 272.037 179.194 291.154 126.547 328.135C73.8993 365.116 -11.6885 313.234 8.00289 254.091C27.6942 199.487 8.26655 207.238 -13.4222 129.909Z" stroke="white" stroke-opacity="0.1" stroke-width="1.99636"/>
<path d="M1.0286 137.081C-16.0622 76.0973 48.7169 63.1119 96.0447 83.2592C125.534 94.86 146.77 65.6679 180.376 77.8175C219.66 92.025 180.176 128.083 230.367 149.628C281.447 172.028 261.319 263.35 209.577 264.258C159.868 265.165 173.757 282.988 126.414 315.324C79.0705 347.659 3.19571 302.104 20.074 248.555C36.9523 200.68 20.4037 205.711 1.0286 137.081Z" stroke="white" stroke-opacity="0.1" stroke-width="1.99636"/>
<path d="M15.4796 144.662C0.687541 92.198 57.2448 78.7243 98.755 96.6457C125.226 107.35 144.853 82.3238 174.133 92.9107C210.228 105.967 176.089 136.659 219.416 156.058C263.809 176.483 247.907 257.19 200.589 257.946C155.712 258.702 168.319 275.232 126.28 302.922C84.2418 330.611 18.0801 291.383 32.1453 243.429C46.2106 202.281 32.541 204.592 15.4796 144.662Z" stroke="white" stroke-opacity="0.1" stroke-width="1.99636"/>
<path d="M29.9309 152.266C17.4377 108.322 65.7731 94.3596 101.466 110.055C124.917 119.862 142.935 99.0027 167.89 108.027C200.795 119.932 172.002 145.258 208.465 162.512C246.171 180.961 234.496 251.052 191.603 251.657C151.556 252.262 162.882 267.499 126.148 290.542C89.4136 313.586 32.9648 280.685 44.217 238.325C55.4692 203.906 44.6787 203.496 29.9309 152.266Z" stroke="white" stroke-opacity="0.1" stroke-width="1.99636"/>
<path d="M44.3828 159.903C34.1884 124.478 74.3019 110.028 104.177 123.497C124.609 132.408 141.019 115.714 161.648 123.176C191.363 133.929 167.916 153.89 197.515 168.998C228.534 185.473 221.085 244.947 182.616 245.401C147.401 245.855 157.445 259.798 126.016 278.196C94.5859 296.593 47.8501 270.02 56.2893 233.254C64.7284 205.563 56.8169 202.433 44.3828 159.903Z" stroke="white" stroke-opacity="0.1" stroke-width="1.99636"/>
<path d="M58.8358 167.588C50.9401 140.683 82.8319 125.744 106.889 136.988C124.302 145.001 139.103 132.474 155.407 138.373C181.933 147.975 163.831 162.57 186.565 175.532C210.898 190.032 207.675 238.891 173.631 239.193C143.247 239.496 152.01 252.146 125.885 265.898C99.7593 279.649 62.7365 259.403 68.3626 228.231C73.9887 207.269 68.9563 201.419 58.8358 167.588Z" stroke="white" stroke-opacity="0.1" stroke-width="1.99636"/>
<path d="M73.291 175.346C67.6941 156.961 91.3639 141.533 109.603 150.552C123.997 157.668 137.189 149.307 149.168 153.643C172.504 162.094 159.748 171.324 175.618 182.14C193.264 194.665 194.267 232.907 164.648 233.058C139.095 233.21 146.577 244.567 125.756 253.673C104.935 262.778 77.625 248.86 80.4381 223.281C83.2511 209.048 81.0978 200.477 73.291 175.346Z" stroke="white" stroke-opacity="0.1" stroke-width="1.99636"/>
</svg>
