<svg width="259" height="317" viewBox="0 0 259 317" fill="none" xmlns="http://www.w3.org/2000/svg">
<path d="M5.77604 102.606C-22.8086 -0.976012 83.0797 -11.5194 159.496 19.7569C204.081 35.8419 233.361 -14.1812 288.594 5.78239C343.827 25.746 277.614 88.6314 362.127 120.906C446.639 153.18 405.381 297.584 331.516 299.247C257.65 300.911 277.947 325.2 204.081 380.765C130.216 436.331 5.77621 359.138 36.7198 277.62C67.6633 196.102 36.7194 214.735 5.77604 102.606Z" stroke="white" stroke-opacity="0.1" stroke-width="1.99636"/>
<path d="M164.752 183.218C161.454 173.352 176.902 157.437 189.323 164.229C200.698 170.449 212.281 166.254 219.934 169.027C240.081 176.327 232.67 180.191 241.676 188.861C252.636 199.411 257.865 227.038 232.67 227.038C211.949 227.038 218.149 237.102 202.632 241.561C187.116 246.021 169.519 238.43 169.519 218.445C169.519 210.94 170.245 199.649 164.752 183.218Z" stroke="white" stroke-opacity="0.1" stroke-width="1.99636"/>
<path d="M20.2264 109.431C-6.05954 14.3688 91.6069 3.33706 162.206 32.3876C203.772 47.5757 231.443 1.71879 282.35 20.1196C334.393 38.932 273.526 96.4518 351.175 126.58C429.001 156.88 391.968 290.667 322.528 292.18C253.494 293.692 272.508 316.688 203.948 367.607C135.387 418.527 20.6599 347.661 48.7904 271.737C76.9209 196.948 48.8561 212.86 20.2264 109.431Z" stroke="white" stroke-opacity="0.1" stroke-width="1.99636"/>
<path d="M34.6767 116.256C10.6896 29.7139 100.134 18.1938 164.915 45.0185C203.462 59.3098 229.525 17.6191 276.106 34.4571C324.96 52.1182 269.439 104.272 340.223 132.255C411.362 160.58 378.556 283.751 313.54 285.112C249.337 286.473 267.07 308.176 203.814 354.449C140.557 400.723 35.5437 336.185 60.8611 265.855C86.1786 197.794 60.9928 210.986 34.6767 116.256Z" stroke="white" stroke-opacity="0.1" stroke-width="1.99636"/>
<path d="M49.1272 123.082C27.4389 45.0594 108.662 33.0509 167.625 57.6497C203.153 71.0443 227.606 33.5197 269.863 48.795C315.526 65.3049 265.351 112.094 329.271 137.93C393.723 164.28 365.143 276.835 304.552 278.045C245.18 279.255 261.632 299.665 203.68 341.292C145.728 382.919 50.4276 324.709 72.932 259.973C95.4364 198.64 73.1296 209.112 49.1272 123.082Z" stroke="white" stroke-opacity="0.1" stroke-width="1.99636"/>
<path d="M63.5778 129.909C44.1882 60.4054 117.189 47.9085 170.335 70.2815C202.844 82.7792 225.688 49.4209 263.619 63.1333C306.093 78.492 261.263 119.915 318.319 143.606C376.085 167.981 351.731 269.92 295.564 270.979C241.024 272.037 256.194 291.154 203.547 328.135C150.899 365.116 65.3115 313.234 85.0029 254.091C104.694 199.487 85.2666 207.238 63.5778 129.909Z" stroke="white" stroke-opacity="0.1" stroke-width="1.99636"/>
<path d="M78.0286 137.081C60.9378 76.0973 125.717 63.1119 173.045 83.2592C202.534 94.86 223.77 65.6679 257.376 77.8175C296.66 92.025 257.176 128.083 307.367 149.628C358.447 172.028 338.319 263.35 286.577 264.258C236.868 265.165 250.757 282.988 203.414 315.324C156.07 347.659 80.1957 302.104 97.074 248.555C113.952 200.68 97.4037 205.711 78.0286 137.081Z" stroke="white" stroke-opacity="0.1" stroke-width="1.99636"/>
<path d="M92.4796 144.662C77.6876 92.198 134.245 78.7243 175.755 96.6457C202.226 107.35 221.853 82.3238 251.133 92.9107C287.228 105.967 253.089 136.659 296.416 156.058C340.809 176.483 324.907 257.19 277.589 257.946C232.712 258.702 245.319 275.232 203.281 302.922C161.242 330.611 95.0801 291.383 109.145 243.429C123.211 202.281 109.541 204.592 92.4796 144.662Z" stroke="white" stroke-opacity="0.1" stroke-width="1.99636"/>
<path d="M106.931 152.266C94.4377 108.322 142.773 94.3596 178.466 110.055C201.917 119.862 219.935 99.0027 244.89 108.027C277.795 119.932 249.002 145.258 285.465 162.512C323.171 180.961 311.496 251.052 268.603 251.657C228.556 252.262 239.882 267.499 203.148 290.542C166.414 313.586 109.965 280.685 121.217 238.325C132.469 203.906 121.679 203.496 106.931 152.266Z" stroke="white" stroke-opacity="0.1" stroke-width="1.99636"/>
<path d="M121.383 159.903C111.188 124.478 151.302 110.028 181.177 123.497C201.609 132.408 218.019 115.714 238.648 123.176C268.363 133.929 244.916 153.89 274.515 168.998C305.534 185.473 298.085 244.947 259.616 245.401C224.401 245.855 234.445 259.798 203.016 278.196C171.586 296.593 124.85 270.02 133.289 233.254C141.728 205.563 133.817 202.433 121.383 159.903Z" stroke="white" stroke-opacity="0.1" stroke-width="1.99636"/>
<path d="M135.836 167.588C127.94 140.683 159.832 125.744 183.889 136.988C201.302 145.001 216.103 132.474 232.407 138.373C258.933 147.975 240.831 162.57 263.565 175.532C287.898 190.032 284.675 238.891 250.631 239.193C220.247 239.496 229.01 252.146 202.885 265.898C176.759 279.649 139.737 259.403 145.363 228.231C150.989 207.269 145.956 201.419 135.836 167.588Z" stroke="white" stroke-opacity="0.1" stroke-width="1.99636"/>
<path d="M150.291 175.346C144.694 156.961 168.364 141.533 186.603 150.552C200.997 157.668 214.189 149.307 226.168 153.643C249.504 162.094 236.748 171.324 252.618 182.14C270.264 194.665 271.267 232.907 241.648 233.058C216.095 233.21 223.577 244.567 202.756 253.673C181.935 262.778 154.625 248.86 157.438 223.281C160.251 209.048 158.098 200.477 150.291 175.346Z" stroke="white" stroke-opacity="0.1" stroke-width="1.99636"/>
</svg>
